<?xml version="1.0" encoding="utf-8"?>
<!-- Generator: Adobe Illustrator 20.0.0, SVG Export Plug-In . SVG Version: 6.00 Build 0)  -->
<svg version="1.1" id="art" xmlns="http://www.w3.org/2000/svg" xmlns:xlink="http://www.w3.org/1999/xlink" x="0px" y="0px"
	 viewBox="0 0 512 399" style="enable-background:new 0 0 512 399;" xml:space="preserve">
<style type="text/css">
	.st0{fill:#2395D6;}
	.st1{fill:url(#SVGID_1_);}
	.st2{fill:#D4EAF7;}
	.st3{fill:#FFFFFF;}
	.st4{opacity:0.2;}
	.st5{opacity:0.5;}
	.st6{fill:none;}
	.st7{opacity:0.4;fill:#2395D6;enable-background:new    ;}
	.st8{opacity:0.2;fill:#2395D6;enable-background:new    ;}
	.st9{fill:#D5EAF7;}
	.st10{opacity:0.3;}
	.st11{fill:#BDDFF3;}
	.st12{opacity:0.3;fill:#BDDFF3;enable-background:new    ;}
	.st13{fill:url(#SVGID_2_);}
	.st14{fill:url(#SVGID_3_);}
	.st15{fill:url(#SVGID_4_);}
	.st16{fill:url(#SVGID_5_);}
	.st17{fill:url(#SVGID_6_);}
	.st18{fill:url(#SVGID_7_);}
</style>
<g>
	<path class="st0" d="M84.2,113.2c-0.1,0-0.2,0-0.2-0.1c-0.3-0.1-0.4-0.5-0.3-0.7c0.5-1,1-2,1.5-3c0.1-0.3,0.5-0.4,0.7-0.2
		c0.3,0.1,0.4,0.5,0.2,0.7c-0.5,1-1,2-1.5,3C84.6,113.1,84.4,113.2,84.2,113.2z"/>
	<path class="st0" d="M254.5,386l-1,0c-0.3,0-0.6-0.2-0.6-0.6c0-0.3,0.2-0.5,0.6-0.5h0l1,0c1.9,0,3.8,0,5.6-0.1
		c0.3,0,0.6,0.2,0.6,0.5c0,0.3-0.2,0.6-0.5,0.6C258.3,386,256.4,386,254.5,386z M246.9,385.9C246.9,385.9,246.9,385.9,246.9,385.9
		c-2.2-0.1-4.4-0.2-6.6-0.4c-0.3,0-0.5-0.3-0.5-0.6c0-0.3,0.3-0.5,0.6-0.5c2.2,0.2,4.4,0.3,6.6,0.4c0.3,0,0.5,0.3,0.5,0.6
		C247.5,385.7,247.2,385.9,246.9,385.9z M266.7,385.7c-0.3,0-0.5-0.2-0.5-0.5c0-0.3,0.2-0.6,0.5-0.6c2.2-0.1,4.4-0.3,6.6-0.5
		c0.3,0,0.6,0.2,0.6,0.5c0,0.3-0.2,0.6-0.5,0.6C271.2,385.3,268.9,385.5,266.7,385.7C266.7,385.7,266.7,385.7,266.7,385.7z
		 M233.8,384.9C233.8,384.9,233.7,384.9,233.8,384.9c-2.2-0.2-4.4-0.5-6.6-0.8c-0.3,0-0.5-0.3-0.5-0.6c0-0.3,0.3-0.5,0.6-0.5
		c2.2,0.3,4.4,0.6,6.5,0.8c0.3,0,0.5,0.3,0.5,0.6C234.3,384.7,234.1,384.9,233.8,384.9z M279.8,384.4c-0.3,0-0.5-0.2-0.5-0.5
		c0-0.3,0.2-0.6,0.5-0.6c2.2-0.3,4.4-0.6,6.5-1c0.3,0,0.6,0.1,0.6,0.5c0.1,0.3-0.2,0.6-0.5,0.6C284.3,383.7,282.1,384.1,279.8,384.4
		C279.9,384.4,279.9,384.4,279.8,384.4z M220.7,383C220.7,383,220.7,383,220.7,383c-2.3-0.4-4.4-0.8-6.6-1.3
		c-0.3-0.1-0.5-0.4-0.4-0.7c0.1-0.3,0.4-0.5,0.7-0.4c2.1,0.5,4.3,0.9,6.5,1.3c0.3,0.1,0.5,0.3,0.4,0.6
		C221.2,382.9,221,383,220.7,383z M292.8,382.2c-0.3,0-0.5-0.2-0.5-0.4c-0.1-0.3,0.1-0.6,0.4-0.7c2.1-0.4,4.3-0.9,6.4-1.4
		c0.3-0.1,0.6,0.1,0.7,0.4c0.1,0.3-0.1,0.6-0.4,0.7c-2.1,0.5-4.3,1-6.5,1.4C292.9,382.2,292.9,382.2,292.8,382.2z M207.8,380.3
		c0,0-0.1,0-0.1,0c-2.1-0.5-4.3-1.1-6.4-1.7c-0.3-0.1-0.5-0.4-0.4-0.7c0.1-0.3,0.4-0.5,0.7-0.4c2.1,0.6,4.2,1.2,6.3,1.7
		c0.3,0.1,0.5,0.4,0.4,0.7C208.3,380.1,208.1,380.3,207.8,380.3z M305.7,379.1c-0.2,0-0.5-0.2-0.5-0.4c-0.1-0.3,0.1-0.6,0.4-0.7
		c2.1-0.6,4.2-1.2,6.3-1.9c0.3-0.1,0.6,0.1,0.7,0.4c0.1,0.3-0.1,0.6-0.4,0.7c-2.1,0.7-4.2,1.3-6.3,1.9
		C305.8,379.1,305.7,379.1,305.7,379.1z M195.1,376.6c-0.1,0-0.1,0-0.2,0c-2.1-0.7-4.2-1.4-6.3-2.2c-0.3-0.1-0.4-0.4-0.3-0.7
		c0.1-0.3,0.4-0.4,0.7-0.3c2.1,0.8,4.1,1.5,6.2,2.2c0.3,0.1,0.4,0.4,0.4,0.7C195.6,376.4,195.4,376.6,195.1,376.6z M318.2,375.1
		c-0.2,0-0.4-0.1-0.5-0.4c-0.1-0.3,0-0.6,0.3-0.7c2.1-0.7,4.1-1.5,6.2-2.3c0.3-0.1,0.6,0,0.7,0.3c0.1,0.3,0,0.6-0.3,0.7
		c-2,0.8-4.1,1.6-6.2,2.3C318.4,375.1,318.3,375.1,318.2,375.1z M182.7,372c-0.1,0-0.1,0-0.2,0c-2-0.8-4.1-1.7-6.1-2.6
		c-0.3-0.1-0.4-0.5-0.3-0.7c0.1-0.3,0.4-0.4,0.7-0.3c2,0.9,4,1.8,6.1,2.6c0.3,0.1,0.4,0.4,0.3,0.7C183.2,371.9,183,372,182.7,372z
		 M330.5,370.2c-0.2,0-0.4-0.1-0.5-0.3c-0.1-0.3,0-0.6,0.3-0.7c2-0.9,4-1.8,6-2.7c0.3-0.1,0.6,0,0.7,0.3c0.1,0.3,0,0.6-0.3,0.7
		c-2,1-4,1.9-6,2.8C330.6,370.2,330.6,370.2,330.5,370.2z M170.7,366.6c-0.1,0-0.2,0-0.2-0.1c-2-1-4-2-5.9-3
		c-0.3-0.1-0.4-0.5-0.2-0.8c0.1-0.3,0.5-0.4,0.7-0.2c1.9,1,3.9,2,5.9,3c0.3,0.1,0.4,0.5,0.3,0.7
		C171.1,366.5,170.9,366.6,170.7,366.6z M342.3,364.5c-0.2,0-0.4-0.1-0.5-0.3c-0.1-0.3,0-0.6,0.2-0.7c1.9-1,3.9-2.1,5.8-3.1
		c0.3-0.1,0.6-0.1,0.8,0.2c0.2,0.3,0.1,0.6-0.2,0.8c-1.9,1.1-3.9,2.1-5.8,3.2C342.5,364.5,342.4,364.5,342.3,364.5z M159.1,360.3
		c-0.1,0-0.2,0-0.3-0.1c-1.9-1.1-3.8-2.3-5.7-3.4c-0.3-0.2-0.3-0.5-0.2-0.8c0.2-0.3,0.5-0.3,0.8-0.2c1.8,1.2,3.7,2.3,5.6,3.4
		c0.3,0.2,0.4,0.5,0.2,0.8C159.4,360.2,159.2,360.3,159.1,360.3z M353.8,358c-0.2,0-0.4-0.1-0.5-0.3c-0.2-0.3-0.1-0.6,0.2-0.8
		c1.9-1.1,3.7-2.3,5.5-3.5c0.3-0.2,0.6-0.1,0.8,0.2c0.2,0.3,0.1,0.6-0.1,0.8c-1.8,1.2-3.7,2.4-5.6,3.6C354,358,353.9,358,353.8,358z
		 M147.9,353.3c-0.1,0-0.2,0-0.3-0.1c-1.8-1.2-3.6-2.5-5.4-3.8c-0.2-0.2-0.3-0.5-0.1-0.8c0.2-0.2,0.5-0.3,0.8-0.1
		c1.8,1.3,3.6,2.6,5.4,3.8c0.3,0.2,0.3,0.5,0.1,0.8C148.2,353.2,148.1,353.3,147.9,353.3z M364.8,350.7c-0.2,0-0.3-0.1-0.4-0.2
		c-0.2-0.2-0.1-0.6,0.1-0.8c1.8-1.3,3.6-2.6,5.3-3.9c0.2-0.2,0.6-0.1,0.8,0.1s0.1,0.6-0.1,0.8c-1.7,1.3-3.5,2.7-5.3,3.9
		C365,350.7,364.9,350.7,364.8,350.7z M137.3,345.4c-0.1,0-0.2,0-0.3-0.1c-1.7-1.4-3.4-2.8-5.1-4.2c-0.2-0.2-0.3-0.5-0.1-0.8
		c0.2-0.2,0.5-0.3,0.8-0.1c1.7,1.4,3.4,2.8,5.1,4.2c0.2,0.2,0.3,0.5,0.1,0.8C137.6,345.4,137.4,345.4,137.3,345.4z M375.2,342.7
		c-0.2,0-0.3-0.1-0.4-0.2c-0.2-0.2-0.2-0.6,0.1-0.8c1.7-1.4,3.4-2.8,5-4.3c0.2-0.2,0.6-0.2,0.8,0c0.2,0.2,0.2,0.6,0,0.8
		c-1.6,1.5-3.3,2.9-5,4.3C375.4,342.6,375.3,342.7,375.2,342.7z M127.2,336.9c-0.1,0-0.3,0-0.4-0.1c-1.6-1.5-3.2-3-4.8-4.5
		c-0.2-0.2-0.2-0.6,0-0.8c0.2-0.2,0.6-0.2,0.8,0c1.6,1.5,3.2,3,4.8,4.5c0.2,0.2,0.2,0.6,0,0.8C127.5,336.9,127.3,336.9,127.2,336.9z
		 M385.1,333.9c-0.1,0-0.3-0.1-0.4-0.2c-0.2-0.2-0.2-0.6,0-0.8c1.6-1.5,3.2-3.1,4.7-4.6c0.2-0.2,0.6-0.2,0.8,0
		c0.2,0.2,0.2,0.6,0,0.8c-1.5,1.6-3.1,3.1-4.7,4.6C385.3,333.9,385.2,333.9,385.1,333.9z M117.7,327.7c-0.1,0-0.3-0.1-0.4-0.2
		c-1.5-1.6-3-3.2-4.5-4.9c-0.2-0.2-0.2-0.6,0-0.8c0.2-0.2,0.6-0.2,0.8,0c1.5,1.6,3,3.3,4.5,4.8c0.2,0.2,0.2,0.6,0,0.8
		C118,327.7,117.9,327.7,117.7,327.7z M394.3,324.5c-0.1,0-0.3,0-0.4-0.1c-0.2-0.2-0.2-0.6,0-0.8c1.5-1.6,2.9-3.3,4.4-4.9
		c0.2-0.2,0.5-0.3,0.8-0.1c0.2,0.2,0.3,0.5,0.1,0.8c-1.4,1.7-2.9,3.3-4.4,5C394.6,324.4,394.4,324.5,394.3,324.5z M108.9,317.9
		c-0.2,0-0.3-0.1-0.4-0.2c-1.4-1.7-2.8-3.4-4.1-5.1c-0.2-0.2-0.1-0.6,0.1-0.8c0.2-0.2,0.6-0.1,0.8,0.1c1.3,1.7,2.7,3.4,4.1,5.1
		c0.2,0.2,0.2,0.6-0.1,0.8C109.2,317.9,109,317.9,108.9,317.9z M402.9,314.5c-0.1,0-0.2,0-0.3-0.1c-0.2-0.2-0.3-0.5-0.1-0.8
		c1.4-1.7,2.7-3.5,4-5.2c0.2-0.2,0.5-0.3,0.8-0.1c0.2,0.2,0.3,0.5,0.1,0.8c-1.3,1.8-2.7,3.5-4,5.2
		C403.2,314.4,403,314.5,402.9,314.5z M100.8,307.5c-0.2,0-0.3-0.1-0.4-0.2c-1.3-1.8-2.6-3.6-3.8-5.4c-0.2-0.3-0.1-0.6,0.2-0.8
		c0.3-0.2,0.6-0.1,0.8,0.1c1.2,1.8,2.5,3.6,3.8,5.4c0.2,0.2,0.1,0.6-0.1,0.8C101.1,307.5,100.9,307.5,100.8,307.5z M410.7,303.9
		c-0.1,0-0.2,0-0.3-0.1c-0.3-0.2-0.3-0.5-0.1-0.8c1.2-1.8,2.5-3.6,3.6-5.5c0.2-0.3,0.5-0.3,0.8-0.2c0.3,0.2,0.3,0.5,0.2,0.8
		c-1.2,1.9-2.4,3.7-3.7,5.5C411.1,303.8,410.9,303.9,410.7,303.9z M93.5,296.6c-0.2,0-0.4-0.1-0.5-0.3c-1.2-1.9-2.3-3.8-3.4-5.7
		c-0.2-0.3-0.1-0.6,0.2-0.8c0.3-0.1,0.6-0.1,0.8,0.2c1.1,1.9,2.2,3.8,3.4,5.6c0.2,0.3,0.1,0.6-0.2,0.8
		C93.7,296.5,93.6,296.6,93.5,296.6z M417.8,292.7c-0.1,0-0.2,0-0.3-0.1c-0.3-0.2-0.4-0.5-0.2-0.8c1.1-1.9,2.2-3.8,3.2-5.7
		c0.1-0.3,0.5-0.4,0.7-0.2c0.3,0.1,0.4,0.5,0.2,0.8c-1,1.9-2.1,3.9-3.3,5.8C418.2,292.6,418,292.7,417.8,292.7z M86.9,285.1
		c-0.2,0-0.4-0.1-0.5-0.3c-1-1.9-2-3.9-3-5.9c-0.1-0.3,0-0.6,0.3-0.7c0.3-0.1,0.6,0,0.7,0.3c1,2,2,3.9,3,5.9c0.1,0.3,0,0.6-0.2,0.7
		C87.1,285.1,87,285.1,86.9,285.1z M424.1,281.1c-0.1,0-0.2,0-0.2-0.1c-0.3-0.1-0.4-0.5-0.2-0.7c1-1.9,1.9-3.9,2.8-5.9
		c0.1-0.3,0.5-0.4,0.7-0.3c0.3,0.1,0.4,0.5,0.3,0.7c-0.9,2-1.9,4-2.9,6C424.5,281,424.4,281.1,424.1,281.1z M81.2,273.3
		c-0.2,0-0.4-0.1-0.5-0.3c-0.9-2-1.8-4.1-2.6-6.1c-0.1-0.3,0-0.6,0.3-0.7c0.3-0.1,0.6,0,0.7,0.3c0.8,2,1.7,4,2.6,6
		c0.1,0.3,0,0.6-0.3,0.7C81.3,273.3,81.2,273.3,81.2,273.3z M429.6,269.1c-0.1,0-0.1,0-0.2,0c-0.3-0.1-0.4-0.4-0.3-0.7
		c0.8-2,1.6-4.1,2.4-6.1c0.1-0.3,0.4-0.4,0.7-0.3c0.3,0.1,0.4,0.4,0.3,0.7c-0.8,2.1-1.6,4.1-2.4,6.2
		C430.1,269,429.9,269.1,429.6,269.1z M76.2,261.1c-0.2,0-0.4-0.1-0.5-0.4c-0.7-2.1-1.5-4.2-2.1-6.2c-0.1-0.3,0.1-0.6,0.4-0.7
		c0.3-0.1,0.6,0.1,0.7,0.4c0.7,2.1,1.4,4.2,2.1,6.2c0.1,0.3,0,0.6-0.3,0.7C76.4,261.1,76.3,261.1,76.2,261.1z M434.3,256.7
		c-0.1,0-0.1,0-0.2,0c-0.3-0.1-0.4-0.4-0.3-0.7c0.7-2.1,1.4-4.2,2-6.3c0.1-0.3,0.4-0.5,0.7-0.4c0.3,0.1,0.5,0.4,0.4,0.7
		c-0.6,2.1-1.3,4.2-2,6.3C434.7,256.6,434.5,256.7,434.3,256.7z M72.2,248.6c-0.2,0-0.5-0.2-0.5-0.4c-0.6-2.1-1.2-4.3-1.7-6.4
		c-0.1-0.3,0.1-0.6,0.4-0.7c0.3-0.1,0.6,0.1,0.7,0.4c0.5,2.1,1.1,4.3,1.7,6.4c0.1,0.3-0.1,0.6-0.4,0.7
		C72.3,248.5,72.2,248.6,72.2,248.6z M438,244.1c0,0-0.1,0-0.1,0c-0.3-0.1-0.5-0.4-0.4-0.7c0.6-2.1,1.1-4.3,1.5-6.4
		c0.1-0.3,0.4-0.5,0.7-0.4c0.3,0.1,0.5,0.4,0.4,0.7c-0.5,2.1-1,4.3-1.5,6.4C438.5,243.9,438.3,244.1,438,244.1z M440.9,231.2
		c0,0-0.1,0-0.1,0c-0.3-0.1-0.5-0.3-0.4-0.6c0.4-2.1,0.8-4.3,1.1-6.5c0-0.3,0.3-0.5,0.6-0.5c0.3,0,0.5,0.3,0.5,0.6
		c-0.3,2.2-0.7,4.4-1.1,6.5C441.4,231,441.1,231.2,440.9,231.2z M442.8,218.1C442.8,218.1,442.8,218.1,442.8,218.1
		c-0.4,0-0.6-0.3-0.5-0.6c0.2-2.2,0.5-4.4,0.6-6.5c0-0.3,0.3-0.5,0.6-0.5c0.3,0,0.5,0.3,0.5,0.6c-0.2,2.2-0.4,4.4-0.6,6.6
		C443.3,217.9,443.1,218.1,442.8,218.1z M443.9,205C443.8,205,443.8,205,443.9,205c-0.3,0-0.6-0.3-0.5-0.6c0.1-2.2,0.2-4.4,0.2-6.6
		c0-0.3,0.2-0.6,0.6-0.5c0.3,0,0.5,0.3,0.5,0.6c0,2.2-0.1,4.4-0.2,6.6C444.4,204.7,444.1,205,443.9,205z M444,191.8
		c-0.3,0-0.5-0.2-0.6-0.5c-0.1-2.2-0.1-4.4-0.3-6.6c0-0.3,0.2-0.6,0.5-0.6c0.3,0,0.6,0.2,0.6,0.5c0.1,2.2,0.2,4.4,0.3,6.6
		C444.5,191.5,444.3,191.8,444,191.8C444,191.8,444,191.8,444,191.8z M443.2,178.6c-0.3,0-0.5-0.2-0.5-0.5c-0.2-2.2-0.4-4.4-0.7-6.5
		c0-0.3,0.2-0.6,0.5-0.6c0.3,0,0.6,0.2,0.6,0.5c0.3,2.2,0.5,4.4,0.7,6.6C443.8,178.3,443.6,178.6,443.2,178.6
		C443.2,178.6,443.2,178.6,443.2,178.6z M441.5,165.5c-0.3,0-0.5-0.2-0.5-0.5c-0.4-2.2-0.8-4.3-1.2-6.5c-0.1-0.3,0.1-0.6,0.4-0.6
		c0.3-0.1,0.6,0.1,0.7,0.4c0.4,2.2,0.8,4.3,1.2,6.5C442.1,165.2,441.9,165.5,441.5,165.5C441.6,165.5,441.5,165.5,441.5,165.5z
		 M438.9,152.6c-0.3,0-0.5-0.2-0.5-0.4c-0.5-2.1-1.1-4.3-1.6-6.4c-0.1-0.3,0.1-0.6,0.4-0.7c0.3-0.1,0.6,0.1,0.7,0.4
		c0.6,2.1,1.1,4.3,1.6,6.4c0.1,0.3-0.1,0.6-0.4,0.7C439,152.6,439,152.6,438.9,152.6z M435.4,139.9c-0.2,0-0.5-0.2-0.5-0.4
		c-0.6-2.1-1.3-4.2-2.1-6.2c-0.1-0.3,0.1-0.6,0.3-0.7c0.3-0.1,0.6,0.1,0.7,0.3c0.7,2.1,1.4,4.2,2.1,6.3c0.1,0.3-0.1,0.6-0.4,0.7
		C435.5,139.9,435.5,139.9,435.4,139.9z M431.1,127.4c-0.2,0-0.4-0.1-0.5-0.4c-0.8-2-1.6-4.1-2.5-6.1c-0.1-0.3,0-0.6,0.3-0.7
		c0.3-0.1,0.6,0,0.7,0.3c0.9,2,1.7,4.1,2.5,6.1c0.1,0.3,0,0.6-0.3,0.7C431.2,127.4,431.1,127.4,431.1,127.4z M425.8,115.4
		c-0.2,0-0.4-0.1-0.5-0.3c-0.9-2-1.9-4-2.9-5.9c-0.1-0.3,0-0.6,0.2-0.7c0.3-0.1,0.6,0,0.7,0.2c1,1.9,2,3.9,2.9,5.9
		c0.1,0.3,0,0.6-0.3,0.7C426,115.4,425.9,115.4,425.8,115.4z M88.8,104.4c-0.1,0-0.2,0-0.3-0.1c-0.3-0.1-0.4-0.5-0.2-0.8
		c1.1-1.9,2.2-3.8,3.3-5.7c0.2-0.3,0.5-0.3,0.8-0.2c0.3,0.2,0.3,0.5,0.2,0.8c-1.1,1.9-2.2,3.8-3.3,5.7
		C89.1,104.3,89,104.4,88.8,104.4z M419.8,103.7c-0.2,0-0.4-0.1-0.5-0.3c-1.1-1.9-2.2-3.8-3.3-5.7c-0.2-0.3-0.1-0.6,0.2-0.8
		c0.3-0.2,0.6-0.1,0.8,0.2c1.1,1.9,2.3,3.8,3.3,5.7c0.1,0.3,0.1,0.6-0.2,0.8C420,103.7,419.9,103.7,419.8,103.7z M95.6,93.1
		c-0.1,0-0.2,0-0.3-0.1c-0.3-0.2-0.3-0.5-0.2-0.8c1.2-1.8,2.4-3.7,3.7-5.5c0.2-0.3,0.5-0.3,0.8-0.1c0.2,0.2,0.3,0.5,0.1,0.8
		c-1.3,1.8-2.5,3.6-3.7,5.5C95.9,93.1,95.8,93.1,95.6,93.1z M412.9,92.4c-0.2,0-0.4-0.1-0.5-0.2c-1.2-1.8-2.5-3.7-3.7-5.4
		c-0.2-0.2-0.1-0.6,0.1-0.8c0.2-0.2,0.6-0.1,0.8,0.1c1.3,1.8,2.5,3.6,3.7,5.5c0.2,0.3,0.1,0.6-0.2,0.8
		C413.1,92.4,413,92.4,412.9,92.4z M103.2,82.3c-0.1,0-0.2,0-0.3-0.1c-0.2-0.2-0.3-0.5-0.1-0.8c1.3-1.8,2.7-3.5,4.1-5.2
		c0.2-0.2,0.5-0.3,0.8-0.1s0.3,0.5,0.1,0.8c-1.4,1.7-2.7,3.4-4.1,5.2C103.5,82.3,103.3,82.3,103.2,82.3z M405.3,81.7
		c-0.2,0-0.3-0.1-0.4-0.2c-1.3-1.7-2.7-3.5-4.1-5.2c-0.2-0.2-0.2-0.6,0.1-0.8c0.2-0.2,0.6-0.2,0.8,0.1c1.4,1.7,2.8,3.5,4.1,5.2
		c0.2,0.2,0.1,0.6-0.1,0.8C405.5,81.6,405.4,81.7,405.3,81.7z M111.5,72.1c-0.1,0-0.3,0-0.4-0.1c-0.2-0.2-0.3-0.5-0.1-0.8
		c1.4-1.7,2.9-3.3,4.4-4.9c0.2-0.2,0.6-0.2,0.8,0c0.2,0.2,0.2,0.6,0,0.8c-1.5,1.6-3,3.2-4.4,4.9C111.8,72,111.6,72.1,111.5,72.1z
		 M397,71.5c-0.2,0-0.3-0.1-0.4-0.2c-1.4-1.6-2.9-3.3-4.4-4.9c-0.2-0.2-0.2-0.6,0-0.8c0.2-0.2,0.6-0.2,0.8,0c1.5,1.6,3,3.3,4.4,4.9
		c0.2,0.2,0.2,0.6-0.1,0.8C397.2,71.4,397.1,71.5,397,71.5z M120.5,62.5c-0.1,0-0.3-0.1-0.4-0.2c-0.2-0.2-0.2-0.6,0-0.8
		c1.5-1.6,3.2-3.1,4.8-4.6c0.2-0.2,0.6-0.2,0.8,0c0.2,0.2,0.2,0.6,0,0.8c-1.6,1.5-3.2,3-4.7,4.6C120.8,62.4,120.6,62.5,120.5,62.5z
		 M387.9,61.9c-0.1,0-0.3-0.1-0.4-0.2c-1.6-1.5-3.2-3.1-4.8-4.5c-0.2-0.2-0.2-0.6,0-0.8c0.2-0.2,0.6-0.2,0.8,0
		c1.6,1.5,3.2,3,4.8,4.6c0.2,0.2,0.2,0.6,0,0.8C388.2,61.8,388.1,61.9,387.9,61.9z M130.1,53.5c-0.2,0-0.3-0.1-0.4-0.2
		c-0.2-0.2-0.2-0.6,0.1-0.8c1.7-1.4,3.4-2.9,5.1-4.3c0.2-0.2,0.6-0.2,0.8,0.1c0.2,0.2,0.2,0.6-0.1,0.8c-1.7,1.4-3.4,2.8-5,4.2
		C130.4,53.4,130.3,53.5,130.1,53.5z M378.2,52.9c-0.1,0-0.3,0-0.4-0.1c-1.7-1.4-3.4-2.8-5.1-4.2c-0.2-0.2-0.3-0.5-0.1-0.8
		c0.2-0.2,0.5-0.3,0.8-0.1c1.7,1.4,3.4,2.8,5.1,4.2c0.2,0.2,0.3,0.5,0.1,0.8C378.5,52.9,378.4,52.9,378.2,52.9z M140.4,45.1
		c-0.2,0-0.3-0.1-0.4-0.2c-0.2-0.2-0.1-0.6,0.1-0.8c1.8-1.3,3.6-2.6,5.3-3.9c0.3-0.2,0.6-0.1,0.8,0.1c0.2,0.3,0.1,0.6-0.1,0.8
		c-1.8,1.2-3.6,2.6-5.3,3.9C140.6,45.1,140.5,45.1,140.4,45.1z M367.9,44.7c-0.1,0-0.2,0-0.3-0.1c-1.8-1.3-3.5-2.6-5.3-3.9
		c-0.3-0.2-0.3-0.5-0.1-0.8c0.2-0.3,0.5-0.3,0.8-0.1c1.8,1.3,3.6,2.6,5.4,3.9c0.2,0.2,0.3,0.5,0.1,0.8
		C368.3,44.6,368.1,44.7,367.9,44.7z M151.2,37.6c-0.2,0-0.4-0.1-0.5-0.3c-0.2-0.3-0.1-0.6,0.2-0.8c1.8-1.2,3.7-2.4,5.6-3.5
		c0.3-0.2,0.6-0.1,0.8,0.2c0.2,0.3,0.1,0.6-0.2,0.8c-1.9,1.1-3.7,2.3-5.6,3.5C151.4,37.5,151.3,37.6,151.2,37.6z M357.1,37.1
		c-0.1,0-0.2,0-0.3-0.1c-1.8-1.2-3.7-2.4-5.6-3.5c-0.3-0.2-0.4-0.5-0.2-0.8c0.2-0.3,0.5-0.3,0.8-0.2c1.9,1.1,3.8,2.3,5.6,3.5
		c0.3,0.2,0.3,0.5,0.2,0.8C357.5,37,357.3,37.1,357.1,37.1z M162.5,30.8c-0.2,0-0.4-0.1-0.5-0.3c-0.1-0.3-0.1-0.6,0.2-0.8
		c1.9-1.1,3.9-2.1,5.8-3.1c0.3-0.1,0.6,0,0.7,0.2c0.1,0.3,0,0.6-0.2,0.7c-1.9,1-3.9,2-5.8,3.1C162.6,30.7,162.6,30.8,162.5,30.8z
		 M345.8,30.3c-0.1,0-0.2,0-0.3-0.1c-1.9-1.1-3.9-2.1-5.8-3.1c-0.3-0.1-0.4-0.5-0.2-0.7c0.1-0.3,0.5-0.4,0.7-0.2c2,1,3.9,2,5.9,3.1
		c0.3,0.1,0.4,0.5,0.2,0.8C346.1,30.2,346,30.3,345.8,30.3z M174.2,24.8c-0.2,0-0.4-0.1-0.5-0.3c-0.1-0.3,0-0.6,0.3-0.7
		c2-0.9,4-1.8,6-2.7c0.3-0.1,0.6,0,0.7,0.3c0.1,0.3,0,0.6-0.3,0.7c-2,0.9-4,1.8-6,2.7C174.4,24.7,174.3,24.8,174.2,24.8z M334,24.4
		c-0.1,0-0.2,0-0.2-0.1c-2-0.9-4-1.8-6-2.7c-0.3-0.1-0.4-0.4-0.3-0.7c0.1-0.3,0.4-0.4,0.7-0.3c2,0.9,4.1,1.8,6.1,2.7
		c0.3,0.1,0.4,0.5,0.3,0.7C334.4,24.3,334.2,24.4,334,24.4z M186.3,19.6c-0.2,0-0.4-0.1-0.5-0.4c-0.1-0.3,0-0.6,0.3-0.7
		c2-0.8,4.1-1.6,6.2-2.3c0.3-0.1,0.6,0.1,0.7,0.3c0.1,0.3-0.1,0.6-0.3,0.7c-2.1,0.7-4.1,1.5-6.2,2.3
		C186.4,19.6,186.4,19.6,186.3,19.6z M321.8,19.3c-0.1,0-0.1,0-0.2,0c-2-0.8-4.1-1.5-6.2-2.2c-0.3-0.1-0.4-0.4-0.3-0.7
		c0.1-0.3,0.4-0.4,0.7-0.3c2.1,0.7,4.2,1.5,6.2,2.2c0.3,0.1,0.4,0.4,0.3,0.7C322.2,19.1,322,19.3,321.8,19.3z M198.8,15.3
		c-0.2,0-0.5-0.2-0.5-0.4c-0.1-0.3,0.1-0.6,0.4-0.7c2.1-0.6,4.2-1.3,6.3-1.8c0.3-0.1,0.6,0.1,0.7,0.4c0.1,0.3-0.1,0.6-0.4,0.7
		c-2.1,0.6-4.2,1.2-6.3,1.8C198.9,15.3,198.8,15.3,198.8,15.3z M309.3,15c-0.1,0-0.1,0-0.2,0c-2.1-0.6-4.2-1.2-6.3-1.8
		c-0.3-0.1-0.5-0.4-0.4-0.7c0.1-0.3,0.4-0.5,0.7-0.4c2.1,0.6,4.3,1.2,6.4,1.8c0.3,0.1,0.5,0.4,0.4,0.7C309.7,14.8,309.5,15,309.3,15
		z M211.5,11.9c-0.3,0-0.5-0.2-0.5-0.4c-0.1-0.3,0.1-0.6,0.4-0.7c2.1-0.5,4.3-1,6.5-1.4c0.3-0.1,0.6,0.1,0.6,0.4
		c0.1,0.3-0.1,0.6-0.4,0.6c-2.1,0.4-4.3,0.9-6.4,1.4C211.5,11.9,211.5,11.9,211.5,11.9z M296.5,11.6c0,0-0.1,0-0.1,0
		c-2.1-0.5-4.3-0.9-6.4-1.3c-0.3-0.1-0.5-0.3-0.4-0.6c0.1-0.3,0.4-0.5,0.6-0.4c2.2,0.4,4.3,0.9,6.5,1.3c0.3,0.1,0.5,0.4,0.4,0.7
		C297,11.5,296.8,11.6,296.5,11.6z M224.4,9.3c-0.3,0-0.5-0.2-0.5-0.5c0-0.3,0.2-0.6,0.5-0.6c2.2-0.3,4.4-0.7,6.6-0.9
		c0.3,0,0.6,0.2,0.6,0.5c0,0.3-0.2,0.6-0.5,0.6C228.8,8.7,226.6,9,224.4,9.3C224.5,9.3,224.4,9.3,224.4,9.3z M283.5,9.2
		C283.5,9.2,283.5,9.2,283.5,9.2c-2.2-0.3-4.4-0.6-6.6-0.9c-0.3,0-0.5-0.3-0.5-0.6c0-0.3,0.3-0.5,0.6-0.5c2.2,0.3,4.4,0.6,6.6,0.9
		c0.3,0,0.5,0.3,0.5,0.6C284.1,9,283.8,9.2,283.5,9.2z M237.5,7.7c-0.3,0-0.5-0.2-0.6-0.5c0-0.3,0.2-0.6,0.5-0.6
		c2.2-0.2,4.4-0.4,6.6-0.5c0.3,0,0.6,0.2,0.6,0.5s-0.2,0.6-0.5,0.6C241.9,7.4,239.7,7.5,237.5,7.7C237.5,7.7,237.5,7.7,237.5,7.7z
		 M270.4,7.6C270.4,7.6,270.4,7.6,270.4,7.6c-2.2-0.2-4.4-0.3-6.6-0.4c-0.3,0-0.5-0.3-0.5-0.6c0-0.3,0.3-0.6,0.6-0.5
		c2.2,0.1,4.4,0.3,6.6,0.4c0.3,0,0.5,0.3,0.5,0.6C271,7.4,270.7,7.6,270.4,7.6z M250.7,7c-0.3,0-0.5-0.2-0.6-0.5
		c0-0.3,0.2-0.6,0.5-0.6c2.2,0,4.4,0,6.6,0c0.3,0,0.5,0.3,0.5,0.6c0,0.3-0.3,0.5-0.6,0.5C255.1,7,252.9,7,250.7,7
		C250.7,7,250.7,7,250.7,7z"/>
	<path class="st0" d="M68.9,235.4c-0.3,0-0.5-0.2-0.5-0.4c-0.2-1.1-0.4-2.2-0.6-3.3c-0.1-0.3,0.1-0.6,0.4-0.6
		c0.3-0.1,0.6,0.1,0.6,0.4c0.2,1.1,0.4,2.2,0.6,3.2c0.1,0.3-0.1,0.6-0.4,0.7C69,235.4,69,235.4,68.9,235.4z"/>
</g>
<linearGradient id="SVGID_1_" gradientUnits="userSpaceOnUse" x1="36.958" y1="108.4877" x2="102.486" y2="108.4877" gradientTransform="matrix(1 0 0 -1 -1 302)">
	<stop  offset="0" style="stop-color:#FFFFFF"/>
	<stop  offset="0.1796" style="stop-color:#BDDFF3"/>
	<stop  offset="0.4977" style="stop-color:#BDDFF3"/>
	<stop  offset="0.8089" style="stop-color:#BDDFF3"/>
	<stop  offset="1" style="stop-color:#FFFFFF"/>
</linearGradient>
<path class="st1" d="M77.7,183.3c4.3-4.7,9-9.1,14.3-12.8c1.8-1.3,3.8-2.5,5.8-3.5L69.5,159c-0.4-0.1-1-0.1-1.4,0l-30,8.4
	c-1.3,0.3-2.1,1.5-2.1,2.8c0,5.9,0.9,11.8,2.4,17.4c1.2-1.8,2.8-3.2,4.8-3.5c9.9-1.5,15.3,19.9,16.9,21.6c1.8-2.6,3.6-5.1,5.4-7.6
	C69.3,192.9,73.3,188,77.7,183.3z M96.5,177.8c-4.1,4-7.6,8.7-10.9,13.6c-3.3,4.9-6.3,10.1-9.1,15.5c-1.4,2.7-8.9,15.8-9.4,16.9
	c-0.5,1-1,1.9-1.6,2.6c0.6,0.4,1.2,0.9,1.8,1.3c0.4,0.3,1,0.4,1.5,0.4c0.6,0,1.1-0.1,1.5-0.4c19-13.5,30.3-33.4,31.2-55.1
	C99.8,174.5,98.2,176.1,96.5,177.8z"/>
<polygon class="st0" points="144,211.2 82.1,211.2 94.6,186.3 144,186.3 "/>
<g>
	<g>
		<path class="st2" d="M347.8,391.7H153.6c-4.2,0-7.6-3.5-7.6-7.6V135.6c0-4.2,3.4-7.6,7.6-7.6H348c4.2,0,7.6,3.5,7.6,7.6v248.7
			C355.4,388.2,352,391.7,347.8,391.7z"/>
		<path class="st0" d="M347.8,392.9H153.6c-4.9,0-8.9-3.9-8.9-8.9V135.6c0-4.9,3.9-8.9,8.9-8.9H348c4.9,0,8.9,3.9,8.9,8.9v248.7
			C356.7,389,352.7,392.9,347.8,392.9z M153.6,129.2c-3.4,0-6.4,2.7-6.4,6.4v248.7c0,3.5,2.7,6.4,6.4,6.4H348c3.5,0,6.4-2.7,6.4-6.4
			V135.6c0-3.4-2.7-6.4-6.4-6.4H153.6z"/>
	</g>
	<path class="st0" d="M347.8,394.1H153.6c-5.4,0-10.1-4.4-10.1-10.1V135.6c0-5.4,4.4-10.1,10.1-10.1H348c5.4,0,10.1,4.4,10.1,10.1
		v248.7C357.9,389.7,353.5,394.1,347.8,394.1z M153.6,130.4c-3,0-5.2,2.2-5.2,5.2v248.7c0,2.7,2.2,5.2,5.2,5.2H348
		c2.7,0,5.2-2.2,5.2-5.2V135.6c0-2.7-2.2-5.2-5.2-5.2L153.6,130.4L153.6,130.4z"/>
	<g>
		<polygon class="st3" points="343.1,140.3 158.3,140.3 158.3,379.4 311.1,379.4 343.1,347.3 		"/>
		<path class="st0" d="M343.1,140.3v207l-32,32H158.3V140.3H343.1 M343.1,137.8H158.3c-1.5,0-2.5,1-2.5,2.5v239.1
			c0,1.5,1,2.5,2.5,2.5h152.8c0.7,0,1.2-0.2,1.7-0.7l32-32c0.5-0.5,0.7-1,0.7-1.7v-207C345.6,138.8,344.6,137.8,343.1,137.8
			L343.1,137.8z"/>
	</g>
	<g>
		<path class="st3" d="M292.3,147.7h-80.8c-1,0-1.5-0.7-1.5-1.5v-13.3c0-8.1,6.7-14.8,14.8-14.8H279c8.1,0,14.8,6.7,14.8,14.8v13.3
			C293.8,146.9,293.1,147.7,292.3,147.7z"/>
		<path class="st0" d="M292.3,150.1h-80.8c-2.2,0-3.9-1.7-3.9-3.9v-13.3c0-9.6,7.6-17.3,17.3-17.3H279c9.6,0,17.3,7.6,17.3,17.3
			v13.3C296.3,148.4,294.6,150.1,292.3,150.1z M212.5,145.2h78.9v-12.3c0-6.9-5.4-12.3-12.3-12.3h-54.2c-6.9,0-12.3,5.4-12.3,12.3
			L212.5,145.2L212.5,145.2z"/>
	</g>
	<path class="st0" d="M264.2,113.2c0.5,1,0,4.9,0,4.9h-12.3h-12.3c0,0-0.5-3.9,0-4.9c1.2-2.5,3.7-9.9,12.3-9.9
		C260.5,103.3,263,110.9,264.2,113.2z"/>
	<circle class="st3" cx="251.9" cy="110.7" r="2.5"/>
	<path class="st0" d="M192.3,195c-0.2,0-0.7,0-0.7-0.2l-5.4-5.2c-0.5-0.5-0.5-1.2,0-1.7c0.5-0.5,1.2-0.5,1.7,0l4.7,4.4l8.4-10.1
		c0.5-0.5,1.2-0.5,1.7-0.2c0.5,0.5,0.5,1.2,0.2,1.7l-9.4,11.1C192.8,195,192.5,195,192.3,195L192.3,195z"/>
	<g class="st4">
		<rect x="182.9" y="177.2" class="st0" width="22.2" height="22.2"/>
	</g>
	<g class="st4">
		<rect x="182.9" y="224.1" class="st0" width="22.2" height="22.2"/>
	</g>
	<g class="st4">
		<rect x="182.9" y="270.9" class="st0" width="22.2" height="22.2"/>
	</g>
	<g class="st4">
		<rect x="182.9" y="317.7" class="st0" width="22.2" height="22.2"/>
	</g>
	<path class="st0" d="M205.1,177.2v22.2h-22.2v-22.2H205.1 M210,172.3h-4.9h-22.2H178v4.9v22.2v4.9h4.9h22.2h4.9v-4.9v-22.2
		L210,172.3L210,172.3z"/>
	<g class="st5">
		<line class="st6" x1="222.3" y1="131.6" x2="281.5" y2="131.6"/>
		<rect x="222.3" y="130.4" class="st0" width="59.2" height="2.5"/>
	</g>
	<g class="st5">
		<line class="st6" x1="222.3" y1="136.6" x2="281.5" y2="136.6"/>
		<rect x="222.3" y="135.3" class="st0" width="59.2" height="2.5"/>
	</g>
	<rect x="224.8" y="179.7" class="st7" width="98.3" height="4.9"/>
	<rect x="224.8" y="192" class="st7" width="98.3" height="4.9"/>
	<path class="st0" d="M192.3,241.8c-0.2,0-0.7,0-0.7-0.2l-5.4-5.2c-0.5-0.5-0.5-1.2,0-1.7c0.5-0.5,1.2-0.5,1.7,0l4.7,4.4l8.4-10.1
		c0.5-0.5,1.2-0.5,1.7-0.2c0.5,0.5,0.5,1.2,0.2,1.7l-9.4,11.1C192.8,241.8,192.5,241.8,192.3,241.8L192.3,241.8z"/>
	<path class="st0" d="M205.1,224.1v22.2h-22.2v-22.2H205.1 M210,219.1h-4.9h-22.2H178v4.9v22.2v4.9h4.9h22.2h4.9v-4.9v-22.2
		L210,219.1L210,219.1z"/>
	<rect x="224.8" y="226.5" class="st7" width="98.3" height="4.9"/>
	<rect x="224.8" y="238.9" class="st7" width="98.3" height="4.9"/>
	<path class="st0" d="M205.1,270.9v22.2h-22.2v-22.2H205.1 M210,266h-4.9h-22.2H178v4.9v22.2v4.9h4.9h22.2h4.9v-4.9v-22.2L210,266
		L210,266z"/>
	<rect x="224.8" y="273.4" class="st7" width="98.3" height="4.9"/>
	<rect x="224.8" y="285.7" class="st7" width="98.3" height="4.9"/>
	<path class="st0" d="M205.1,317.7v22.2h-22.2v-22.2H205.1 M210,312.8h-4.9h-22.2H178v4.9v22.2v4.9h4.9h22.2h4.9v-4.9v-22.2
		L210,312.8L210,312.8z"/>
	<rect x="224.8" y="320.2" class="st7" width="98.3" height="4.9"/>
	<rect x="224.8" y="332.5" class="st7" width="98.3" height="4.9"/>
	<polygon class="st8" points="276.6,379.4 308.6,379.4 308.6,349.8 	"/>
	<g>
		<polygon class="st3" points="343.1,347.3 311.1,347.3 311.1,379.4 		"/>
		<path class="st0" d="M343.1,347.3l-32,32v-32H343.1 M343.1,344.9h-32c-1.5,0-2.5,1-2.5,2.5v32c0,1,0.5,2,1.5,2.2
			c0.2,0.2,0.7,0.2,1,0.2c0.7,0,1.2-0.2,1.7-0.7l32-32c0.7-0.7,1-1.7,0.5-2.7C345.1,345.3,344.1,344.9,343.1,344.9L343.1,344.9z"/>
	</g>
</g>
<g>
	<g>
		<path class="st9" d="M494.8,306.7H380c-0.7,0-1.1-0.4-1.1-1.1v-88.3c0-0.7,0.4-1.1,1.1-1.1h16.6l3.3,6.6h95c0.7,0,1.1,0.4,1.1,1.1
			v81.7C495.9,306.2,495.5,306.7,494.8,306.7z"/>
		<path class="st0" d="M396.5,216.2l3.3,6.6h95c0.7,0,1.1,0.4,1.1,1.1v81.7c0,0.7-0.4,1.1-1.1,1.1H380c-0.7,0-1.1-0.4-1.1-1.1v-88.3
			c0-0.7,0.4-1.1,1.1-1.1L396.5,216.2 M397.9,213.9h-1.3H380c-1.9,0-3.3,1.4-3.3,3.3v88.3c0,1.9,1.4,3.3,3.3,3.3h114.8
			c1.9,0,3.3-1.4,3.3-3.3v-81.7c0-1.9-1.4-3.3-3.3-3.3h-93.6l-2.6-5.4L397.9,213.9L397.9,213.9z"/>
	</g>
	<path class="st0" d="M396.5,216.2l3.3,6.6h95c0.7,0,1.1,0.4,1.1,1.1v81.7c0,0.7-0.4,1.1-1.1,1.1H380c-0.7,0-1.1-0.4-1.1-1.1v-88.3
		c0-0.7,0.4-1.1,1.1-1.1L396.5,216.2 M397.9,213.9h-1.3H380c-1.9,0-3.3,1.4-3.3,3.3v88.3c0,1.9,1.4,3.3,3.3,3.3h114.8
		c1.9,0,3.3-1.4,3.3-3.3v-81.7c0-1.9-1.4-3.3-3.3-3.3h-93.6l-2.6-5.4L397.9,213.9L397.9,213.9z"/>
	<g>
		<polygon class="st3" points="504.8,299 421.9,299 421.9,191.9 490.4,191.9 504.8,206.2 		"/>
		<path class="st0" d="M490.4,191.9l14.4,14.4V299h-82.8V191.9H490.4 M490.4,189.7h-68.5c-1.2,0-2.2,1-2.2,2.2V299
			c0,1.2,1,2.2,2.2,2.2h82.8c1.2,0,2.2-1,2.2-2.2v-92.7c0-0.6-0.2-1.1-0.7-1.5l-14.4-14.4C491.5,189.9,490.9,189.7,490.4,189.7
			L490.4,189.7z"/>
	</g>
	<polygon class="st8" points="490.4,207.3 504.8,207.3 504.8,220.6 	"/>
	<g>
		<polygon class="st3" points="504.8,206.2 490.4,206.2 490.4,191.9 		"/>
		<path class="st0" d="M490.4,191.9l14.4,14.4h-14.4V191.9 M490.4,190.8c-0.1,0-0.3,0-0.4,0.1c-0.4,0.2-0.7,0.6-0.7,1v14.4
			c0,0.7,0.4,1.1,1.1,1.1h14.4c0.4,0,0.9-0.2,1-0.7c0.2-0.4,0.1-0.9-0.2-1.2l-14.4-14.4C490.9,190.9,490.7,190.8,490.4,190.8
			L490.4,190.8z"/>
	</g>
	<g>
		<path class="st9" d="M491.6,229.4H383.3c-2.4,0-4.3,2-4.3,4.3v73h117v-73C495.9,231.4,493.9,229.4,491.6,229.4z"/>
		<path class="st0" d="M491.6,229.4c2.4,0,4.3,2,4.3,4.3v73h-117v-73c0-2.4,2-4.3,4.3-4.3L491.6,229.4 M491.6,227.2H383.3
			c-3.6,0-6.5,3-6.5,6.5v73v2.2h2.2h117h2.2v-2.2v-73C498.1,230.2,495.1,227.2,491.6,227.2L491.6,227.2z"/>
	</g>
	<path class="st0" d="M491.6,229.4c2.4,0,4.3,2,4.3,4.3v73h-117v-73c0-2.4,2-4.3,4.3-4.3L491.6,229.4 M491.6,227.2H383.3
		c-3.6,0-6.5,3-6.5,6.5v73v2.2h2.2h117h2.2v-2.2v-73C498.1,230.2,495.1,227.2,491.6,227.2L491.6,227.2z"/>
	<g>
		<circle class="st3" cx="439.6" cy="268" r="18.8"/>
		<path class="st0" d="M439.6,249.3c10.4,0,18.8,8.4,18.8,18.8c0,10.4-8.4,18.8-18.8,18.8c-10.4,0-18.8-8.4-18.8-18.8
			S429.2,249.3,439.6,249.3 M439.6,248.2c-10.9,0-19.9,8.9-19.9,19.9c0,10.9,8.9,19.9,19.9,19.9c10.9,0,19.9-8.9,19.9-19.9
			C459.5,257.1,450.5,248.2,439.6,248.2L439.6,248.2z"/>
	</g>
	<g class="st10">
		<path class="st0" d="M439.6,252.6c9.8,0,17.9,7.5,18.7,17.1c0-0.6,0.1-1.1,0.1-1.7c0-10.4-8.4-18.8-18.8-18.8
			c-10.4,0-18.8,8.4-18.8,18.8c0,0.6,0,1.1,0.1,1.7C421.7,260.1,429.8,252.6,439.6,252.6z"/>
	</g>
	<path class="st0" d="M446.2,265.8c0.6,0,1.1,0.4,1.1,1.1v10c0,0.6-0.4,1.1-1.1,1.1H433c-0.6,0-1.1-0.4-1.1-1.1v-10
		c0-0.6,0.4-1.1,1.1-1.1H446.2 M446.2,264.7H433c-1.2,0-2.2,1-2.2,2.2v10c0,1.2,1,2.2,2.2,2.2h13.3c1.2,0,2.2-1,2.2-2.2v-10
		C448.4,265.7,447.4,264.7,446.2,264.7L446.2,264.7z"/>
	<g class="st4">
		<path class="st0" d="M446.2,278h-6.6v-12.1h6.6c0.6,0,1.1,0.4,1.1,1.1v10C447.3,277.5,446.9,278,446.2,278z"/>
	</g>
	<path class="st0" d="M439.6,257c2.4,0,4.4,2,4.4,4.4v3.3h-8.8v-3.3C435.2,259,437.2,257,439.6,257L439.6,257 M439.6,255.9
		L439.6,255.9c-3.1,0-5.5,2.4-5.5,5.5v3.3c0,0.7,0.4,1.1,1.1,1.1h8.8c0.7,0,1.1-0.4,1.1-1.1v-3.3
		C445.1,258.4,442.7,255.9,439.6,255.9L439.6,255.9z"/>
	<path class="st0" d="M439.6,259.2c1.2,0,2.2,1,2.2,2.2v3.3h-4.4v-3.3C437.4,260.2,438.4,259.2,439.6,259.2 M439.6,258.1
		c-1.9,0-3.3,1.4-3.3,3.3v3.3c0,0.7,0.4,1.1,1.1,1.1h4.4c0.7,0,1.1-0.4,1.1-1.1v-3.3C442.9,259.5,441.5,258.1,439.6,258.1
		L439.6,258.1z"/>
	<rect x="435.2" y="205.1" class="st7" width="28.7" height="2.2"/>
	<rect x="435.2" y="209.5" class="st7" width="28.7" height="2.2"/>
	<rect x="435.2" y="213.9" class="st7" width="56.3" height="2.2"/>
	<rect x="435.2" y="218.4" class="st7" width="56.3" height="2.2"/>
	<rect x="435.2" y="222.8" class="st7" width="56.3" height="2.2"/>
</g>
<path class="st0" d="M76.6,182.2c4.3-4.7,9-9.1,14.3-12.8c1.8-1.3,3.8-2.5,5.8-3.5l-28.3-7.9c-0.4-0.1-1-0.1-1.4,0l-30,8.4
	c-1.3,0.3-2.1,1.5-2.1,2.8c0,5.9,0.9,11.8,2.4,17.4c1.2-1.8,2.8-3.2,4.8-3.5c9.9-1.5,15.3,19.9,16.9,21.6c1.8-2.6,3.6-5.1,5.4-7.6
	C68.2,191.8,72.2,186.9,76.6,182.2z M95.4,176.7c-4.1,4-7.6,8.7-10.9,13.6c-3.3,4.9-6.3,10.1-9.1,15.5c-1.4,2.7-8.9,15.8-9.4,16.9
	c-0.5,1-1,1.9-1.6,2.6c0.6,0.4,1.2,0.9,1.8,1.3c0.4,0.3,1,0.4,1.5,0.4c0.6,0,1.1-0.1,1.5-0.4c19-13.5,30.3-33.4,31.2-55.1
	C98.7,173.4,97.1,175,95.4,176.7z"/>
<path class="st0" d="M109.4,162.7c-3.4-0.5-6.8,0.7-9.9,1.9c-3.1,1.2-5.9,2.9-8.6,4.8c-5.3,3.7-10,8.2-14.3,12.8
	c-4.3,4.7-8.3,9.7-12.1,14.8c-1.9,2.5-3.7,5.1-5.4,7.6c-1.6-1.7-7-23.1-16.9-21.6c-5.8,0.9-9.1,11.5-3.8,13.3
	c12.8,9.2,11.4,19.9,14.6,27.5c3,7,9.8,6,13.1-1.1c0.5-1.2,8-14.2,9.4-16.9c2.8-5.3,5.8-10.5,9.1-15.5c3.3-4.9,6.9-9.6,10.9-13.6
	C99.4,172.7,102.6,168.9,109.4,162.7z"/>
<path class="st11" d="M97.6,169.3c-0.1,0.1-0.2,0.2-0.3,0.3c-1.5,1.5-2.9,3-4.3,4.4c-3.8,3.7-7.5,8.3-11.4,14.2
	c-3.1,4.7-6.2,9.9-9.3,15.8c-0.7,1.3-2.9,5.2-4.9,8.7c-3.1,5.4-4.3,7.7-4.6,8.4c-1.2,2.7-2.9,3.8-4,3.8c-1.3,0-2.3-1.8-2.6-2.6
	c-0.8-1.8-1.3-4-1.8-6.2c-1.6-6.8-3.6-15.3-14-22.8l-0.5-0.3l-0.5-0.2c-0.2-0.2-0.4-1.3,0.1-2.8c0.6-1.9,2-3.4,3.1-3.6
	c0.2,0,0.3,0,0.4,0c4.7,0,10.1,11.1,12.4,15.1c1.5,2.6,4,8.7,4,8.7s6.1-8.8,7.8-11.2c4.1-5.5,8-10.2,11.9-14.5
	c4.9-5.3,9.3-9.2,13.8-12.4C94.5,171.1,96.1,170.2,97.6,169.3"/>
<path class="st6" d="M66,182.8c-1.9,0.3-3.2,0.1-5.1-0.1c-3.5-0.3-7.1,3.2-9.2,6.5c0.4,0.5,0.7,1.1,1,1.7c0.5-0.2,0.9-0.4,1.4-0.5
	c0.6-0.1,1.4-0.7,1.9-1.2c0.5-0.7,0.8-1,1.4-1.6c1.2-1.1,2.7-0.5,1.6,0.6c-1.8,1.7-3,4.2-4.4,6.3c0.1,0.3,0.3,0.6,0.4,0.9
	c2.8-4,4.8-8.7,10.4-9.3c2.6-0.3,4.6,0.6,5.8,2.1c0.3-0.4,0.7-0.8,1-1.2c-1.5-1.5-4-2-6-1.8c-1,0.1-1-1.3,0-1.5
	c2.7-0.4,5.3,0.1,7.1,2c0.2-0.3,0.5-0.6,0.8-0.8C72,182.7,69.1,182.3,66,182.8z M63.4,185.4c-2.8,0.1-6.4,0.4-8.4,3.5
	c-0.5,0.9-1.7,0.1-1.1-0.8c2-3.3,5.6-4.3,9.6-4.1C64.4,184,64.4,185.4,63.4,185.4z"/>
<path class="st6" d="M64.9,192.9c-1.1,0.2-1.8,1.2-2.3,2.5c-0.4,1-1.2,2.2-1.4,2.5c-0.8,1.1-1.3,1.8-2.3,2.8
	c-0.4,0.4-0.9,0.8-1.3,1.2c0.1,0.3,0.2,0.6,0.4,0.9c1.2-1,2.4-2.3,3.2-3.2c1.2-1.4,2-2.3,2.6-4.2c0.2-0.8,0.7-1.1,1.4-1
	c0.4,0.1,0.5,0.4,0.6,0.6c0.3-0.3,0.5-0.7,0.8-1C66.3,193,65.5,192.9,64.9,192.9z"/>
<path class="st6" d="M53.7,192.7C53.8,192.7,53.8,192.8,53.7,192.7C53.8,192.8,53.8,192.7,53.7,192.7z"/>
<path class="st6" d="M71.9,180.1c-2.7-0.7-4.5-0.3-7.1,0.2c-1.2,0.2-3.1-0.4-5.4-0.2c-1.9,0.2-3.8,1-4.6,1.8c-1.6,1.5-2.9,3.1-4,4.9
	c-0.2,0.3-0.4,0.4-0.6,0.4c0.2,0.2,0.3,0.4,0.5,0.7c2.3-3.4,5.9-6.7,9.7-6.7c1.6,0,3,0.5,4.6,0.2c1.6-0.3,3.1-0.4,4.7-0.3
	c2.3,0.1,4.1,1,5.5,2.6c0.3-0.3,0.5-0.6,0.8-0.9C75,181.5,73.6,180.5,71.9,180.1z"/>
<path class="st6" d="M61.3,189.5c-2.7,2.1-3.5,5.1-5.4,7.7c0,0-0.1,0.1-0.1,0.1c0.2,0.4,0.3,0.7,0.4,1.1c0.2-0.3,0.5-0.6,0.7-0.9
	c1.3-2,2.2-4.3,3.7-6.1c0.7-0.8,1.8,0.3,1.1,1.1c-1.8,2.1-2.5,4.9-4.4,6.9c-0.2,0.2-0.4,0.3-0.5,0.5c0.1,0.2,0.1,0.3,0.2,0.5
	c1.8-1.7,3.3-3.6,4.4-6c1.3-2.9,4.4-3.9,6.2-1.7c0.3-0.3,0.5-0.6,0.8-0.9c-0.9-1.5-3-1.7-4.5-1c-0.9,0.5-1.2-0.9-0.3-1.3
	c1.9-1,4.6-0.9,5.9,0.9c0.3-0.3,0.5-0.7,0.8-1c-0.2-0.2-0.3-0.5-0.6-0.6C67.5,186.6,63.6,187.8,61.3,189.5z"/>
<path class="st6" d="M72.8,211.4c1.2-1.7,1.7-2.9,2.1-4.6c0.3-1,1.6-0.7,1.4,0.5c-0.2,1.6-0.9,3.5-2.4,5.3c-0.4,0.5-0.9,1.1-1.5,1.6
	c-0.3,0.3-1.1,0.8-1,1.1c0.4,1.2,2.8-1.1,4-2.8c0.2-0.3,0.5-0.9,0.6-1c1.6-2.9,1.8-4.5,0.8-7.1c-0.2-0.5-0.2-1-0.1-1.6
	c-0.5,0.9-1,1.8-1.5,2.7c-0.6,1.2-2.4,4.3-4.2,7.6C71.7,212.7,72.3,212.2,72.8,211.4z"/>
<path class="st3" d="M60,166.6c1.8-0.8,3.2-1,4.7-1.5c1.1-0.3,2.2-0.9,3.3-1c3.2-0.3,6.4,0.5,9.4,2.6c0.8,0.6,1.5-0.8,0.7-1.4
	c-5.9-4.2-12.7-3.3-18.8,0C58.4,165.9,59,167,60,166.6z"/>
<path class="st3" d="M82.3,175.9c-0.7-1.5-1.9-2.1-3.2-3.1c-0.4-0.3-0.6-0.8-0.5-1.5c0.1-0.9,0-1.9-0.6-2.7
	c-1.7-2.1-4.3-3.3-7.3-3.3c-1,0-2.7,0.1-4.3,0.6c-2.6,0.6-4.2,1-6.8,1.5c-2.4,0.5-3.8,1.1-5.6,3.4c-0.6,0.8,0,2,0.8,1.2
	c2.3-2.4,2.8-2.5,6-3.3c0.6-0.2,1-0.2,1.5-0.2c1-0.1,1.8,0.2,2.3,0.9c0.2,0.3,0.5,0.9,0.9,1.2c0.8,0.7,1.7,1.1,2.7,1
	c2.1-0.1,3.5,0,5.5,0.8c0.9,0.4,1.6-0.6,0.7-1.2c-1.7-1-2.7-1.1-4.4-1.2c-0.8-0.1-1.5,0-2.4-0.2c-1.4-0.4-1.7-1.8-0.2-2.4
	c0.8-0.4,1.7-0.5,2.5-0.6c2.7-0.2,8.1,1.2,7.1,5.4c-0.1,0.7,0.2,1.4,1.1,1.9c1.3,0.7,2.6,1.9,3.1,2.6c0.1,0.2,0.3,0.3,0.5,0.4
	c0.2-0.2,0.5-0.4,0.7-0.7C82.4,176.2,82.3,176.1,82.3,175.9z"/>
<path class="st3" d="M50.8,182.5c1.4-2.5,3.6-3.5,5.7-5.2c1-0.8,1.6-1.8,2.8-2.5c1.7-1,3.4-1.6,5.2-2.3c0.9-0.4,0.3-1.7-0.6-1.3
	c-3.1,1.2-6.2,2-8.3,4.7c-1.2,1.6-2.9,2-3.2,2.3c-1.3,0.9-2.3,2.2-3.1,3.6C48.9,182.6,50.3,183.4,50.8,182.5z"/>
<path class="st3" d="M78.1,175.3c-2.7-1.8-6.9-3.4-10.3-2.7c-3.2,0.6-5.3,2.6-8.4,3.5c-1,0.3-0.6,1.6,0.3,1.3c2.2-0.6,3.9-1.7,6-2.6
	c3.3-1.4,6.9-0.6,10.1,0.9c1.6,0.8,3,1.8,4.1,2.9c0.4-0.4,0.8-0.7,1.1-1.1C80.1,176.7,79.1,176,78.1,175.3z"/>
<path class="st3" d="M84.5,190.3c0.1,0.7,0.1,1.5,0.1,2.2c0,1,1.6,1,1.6-0.1c0-1.3-0.1-2.7-0.3-4.1
	C85.4,188.9,84.9,189.6,84.5,190.3C84.5,190.3,84.5,190.3,84.5,190.3z"/>
<path class="st3" d="M61.5,194.3c-1,2.4-2.6,4.3-4.4,6c0.2,0.6,0.4,1.1,0.6,1.5c0.4-0.4,0.9-0.8,1.3-1.2c1-1,1.5-1.7,2.3-2.8
	c0.2-0.3,1-1.4,1.4-2.5c0.5-1.3,1.2-2.4,2.3-2.5c0.6-0.1,1.3,0.1,1.8,1c0.3-0.4,0.7-0.9,1-1.3C65.9,190.4,62.8,191.4,61.5,194.3z"/>
<path class="st3" d="M50.8,186.8c1.1-1.9,2.4-3.5,4-4.9c0.8-0.8,2.7-1.6,4.6-1.8c2.3-0.2,4.2,0.5,5.4,0.2c2.6-0.5,4.4-0.9,7.1-0.2
	c1.7,0.4,3,1.4,4.1,2.7c0.2-0.2,0.4-0.4,0.5-0.6c0.1-0.2,0.3-0.3,0.5-0.5c-0.6-0.6-1.1-1.2-1.8-1.7c-1.5-1.2-3.5-1.7-5.4-1.9
	c-1-0.1-2.1-0.2-3.1,0.1c-0.6,0.1-1.1,0.3-1.7,0.5c-0.5,0.1-0.5-0.3-0.1-0.6c1.3-0.8,2.7-1.6,4.4-1.2c1,0.2,1.3-1.3,0.4-1.5
	c-1.7-0.4-3.3,0.3-4.9,1.1c-2.2,1.2-3.3,1.9-6,2c-4.2,0.2-7.4,4.4-9.4,7.7c0,0.1,0,0.1-0.1,0.2c0.3,0.3,0.6,0.6,0.8,1
	C50.5,187.2,50.7,187,50.8,186.8z"/>
<path class="st3" d="M76.4,179.6c0.8,0.7,1.8-0.5,1.1-1.1c-1.6-1.4-3.5-2.4-5.5-2.9c-1-0.2-1.3,1.3-0.4,1.5
	C73.4,177.5,75,178.4,76.4,179.6z"/>
<path class="st3" d="M80,202.2c-0.4,0.9,1,1.7,1.4,0.7c1.2-3.2,2-7.1,1.9-10.9c-0.6,0.9-1.1,1.7-1.6,2.6
	C81.5,197.3,80.8,200,80,202.2z"/>
<path class="st3" d="M78,180.7c0.2-0.2,0.4-0.5,0.7-0.7C78.3,180.1,78,180.4,78,180.7z"/>
<path class="st3" d="M77,204.6c1,2.6,0.7,4.2-0.8,7.1c-0.1,0.1-0.4,0.7-0.6,1c-1.2,1.7-3.6,4-4,2.8c-0.1-0.4,0.7-0.8,1-1.1
	c0.6-0.6,1.1-1.1,1.5-1.6c1.5-1.9,2.2-3.7,2.4-5.3c0.2-1.2-1.1-1.5-1.4-0.5c-0.4,1.7-0.9,2.9-2.1,4.6c-0.5,0.7-1.1,1.3-1.7,1.9
	c-0.5,0.9-1.1,1.9-1.6,2.8c0.1,0.6,0.5,1.2,1.4,1.2c3.6,0.3,6.3-4.1,7.9-7.7c0.4-1,1.6-2.4,2.3-2.8c3.7-2.3,4.5-7.8,4.9-11.2
	c0.1-1-1.4-1.4-1.5-0.4c-0.3,3-0.8,6.7-2.7,9.2c-1.1,1.4-3.1,0.2-3.2-1.4c0-0.9,0.3-1.9,0.6-2.7c0.3-0.9,0.5-1.9,0.7-2.8
	c-1.1,1.8-2.1,3.6-3.1,5.5C76.7,203.5,76.8,204.1,77,204.6z"/>
<path class="st3" d="M69.7,181.1c-1.6-0.1-3.1,0-4.7,0.3c-1.6,0.3-3-0.2-4.6-0.2c-3.8,0-7.4,3.3-9.7,6.7c0.3,0.5,0.7,0.9,1,1.4
	c2.1-3.2,5.7-6.8,9.2-6.5c1.9,0.2,3.2,0.3,5.1,0.1c3.2-0.5,6-0.1,8.1,2.1c0.4-0.4,0.7-0.8,1.1-1.2C73.8,182,72,181.2,69.7,181.1z"/>
<path class="st3" d="M65.4,186.1c-5.6,0.6-7.6,5.3-10.4,9.3c0.3,0.6,0.6,1.3,0.8,1.9c0,0,0.1-0.1,0.1-0.1c1.9-2.6,2.7-5.7,5.4-7.7
	c2.2-1.7,6.1-2.9,8.5-0.8c0.2,0.2,0.4,0.4,0.6,0.6c0.3-0.4,0.6-0.7,0.9-1.1C70,186.7,68.1,185.8,65.4,186.1z"/>
<path class="st3" d="M57.4,187.6c-0.6,0.6-0.9,0.9-1.4,1.6c-0.4,0.5-1.2,1.1-1.9,1.2c-0.5,0.1-1,0.3-1.4,0.5c0.3,0.6,0.7,1.2,1,1.8
	c0,0,0,0,0,0.1c0.3,0.6,0.6,1.2,0.9,1.7c1.4-2.2,2.6-4.6,4.4-6.3C60.1,187.2,58.6,186.5,57.4,187.6z"/>
<path class="st3" d="M63.4,184c-4-0.2-7.6,0.9-9.6,4.1c-0.5,0.9,0.6,1.7,1.1,0.8c2-3.1,5.6-3.4,8.4-3.5
	C64.4,185.4,64.4,184,63.4,184z"/>
<path class="st3" d="M66.2,183.8c-1,0.2-1,1.6,0,1.5c2-0.2,4.5,0.3,6,1.8c0.4-0.4,0.7-0.9,1.1-1.3C71.6,183.9,68.9,183.4,66.2,183.8
	z"/>
<path class="st3" d="M63.6,189.4c-0.9,0.5-0.6,1.8,0.3,1.3c1.5-0.8,3.6-0.5,4.5,1c0.4-0.5,0.7-0.9,1.1-1.4
	C68.2,188.5,65.6,188.4,63.6,189.4z"/>
<path class="st3" d="M61.8,192.4c0.7-0.8-0.5-1.9-1.1-1.1c-1.6,1.8-2.5,4-3.7,6.1c-0.2,0.3-0.4,0.6-0.7,0.9c0.2,0.5,0.4,1,0.6,1.5
	c0.2-0.2,0.4-0.3,0.5-0.5C59.4,197.4,60,194.5,61.8,192.4z"/>
<path class="st3" d="M65.3,194.4c-0.6-0.1-1.1,0.2-1.4,1c-0.6,1.9-1.4,2.7-2.6,4.2c-0.8,0.9-2.1,2.2-3.2,3.2
	c0.4,0.9,0.7,1.6,0.9,1.8c1.8-2.6,3.6-5.1,5.4-7.6c0.5-0.7,1-1.3,1.5-1.9C65.8,194.8,65.7,194.5,65.3,194.4z"/>
<path class="st3" d="M52.4,177c1.7-0.7,2.9-2.5,4.6-3.8c1.4-1.1,3.2-1.9,5.4-2.3c1-0.2,0.8-1.5-0.2-1.4c-2,0.3-3.8,1-5.5,2.1
	c-1.4,1-3,2.8-4.7,3.8C51.2,175.9,51.4,177.4,52.4,177z"/>
<path class="st3" d="M83,172.4c-1.5-1.3-1.6-3.4-2.9-4.9c-0.6-0.8-1.9,0-1.3,0.8c1.4,1.9,0.8,2.6,1.5,3.8c0.9,1.4,2.4,1.8,3.2,3.2
	c0.4-0.4,0.8-0.7,1.3-1.1C84.2,173.6,83.5,172.9,83,172.4z"/>
<path class="st12" d="M93.4,162.9l-14-4.2v-14.4c0-6-4.8-10.9-10.7-10.9c-5.9,0-10.7,4.9-10.7,10.9v14.4l-14,4.2v-18.6
	c0-13.8,11-25.1,24.6-25.1c13.6,0,24.6,11.3,24.6,25.1L93.4,162.9L93.4,162.9z M81.6,157.1l9.6,2.9v-15.6
	c0-12.6-10.1-22.9-22.4-22.9c-12.4,0-22.4,10.3-22.4,22.9V160l9.6-2.9v-12.7c0-7.2,5.8-13.1,12.9-13.1c7.1,0,12.9,5.9,12.9,13.1
	V157.1z"/>
<path class="st0" d="M92.3,161.8l-14-4.2v-14.4c0-6-4.8-10.9-10.7-10.9c-5.9,0-10.7,4.9-10.7,10.9v14.4l-14,4.2v-18.6
	c0-13.8,11-25.1,24.6-25.1c13.6,0,24.6,11.3,24.6,25.1L92.3,161.8L92.3,161.8z M80.5,156l9.6,2.9v-15.6c0-12.6-10.1-22.9-22.4-22.9
	c-12.4,0-22.4,10.3-22.4,22.9v15.6l9.6-2.9v-12.7c0-7.2,5.8-13.1,12.9-13.1c7.1,0,12.9,5.9,12.9,13.1V156z"/>
<linearGradient id="SVGID_2_" gradientUnits="userSpaceOnUse" x1="155.9399" y1="103.68" x2="113.2395" y2="103.68" gradientTransform="matrix(1 0 0 -1 -1 302)">
	<stop  offset="0.3652" style="stop-color:#BDDFF3"/>
	<stop  offset="1" style="stop-color:#FFFFFF"/>
</linearGradient>
<path class="st13" d="M89,198.3c0-3.9,1.6-6.3,4.4-6.3c2.8,0,4.4,2.3,4.4,6.3c0,3.9-1.6,6.3-4.4,6.3C90.6,204.6,89,202.2,89,198.3z
	 M96,198.3c0-2.9-0.9-4.6-2.6-4.6c-1.7,0-2.6,1.7-2.6,4.6c0,3,0.9,4.6,2.6,4.6C95.1,202.9,96,201.3,96,198.3z"/>
<linearGradient id="SVGID_3_" gradientUnits="userSpaceOnUse" x1="155.9336" y1="103.68" x2="113.238" y2="103.68" gradientTransform="matrix(1 0 0 -1 -1 302)">
	<stop  offset="0.3652" style="stop-color:#BDDFF3"/>
	<stop  offset="1" style="stop-color:#FFFFFF"/>
</linearGradient>
<path class="st14" d="M100.2,198.3c0-3.9,1.6-6.3,4.4-6.3c2.8,0,4.4,2.3,4.4,6.3c0,3.9-1.6,6.3-4.4,6.3
	C101.8,204.6,100.2,202.2,100.2,198.3z M107.3,198.3c0-2.9-0.9-4.6-2.6-4.6c-1.7,0-2.6,1.7-2.6,4.6c0,3,0.9,4.6,2.6,4.6
	C106.3,202.9,107.3,201.3,107.3,198.3z"/>
<linearGradient id="SVGID_4_" gradientUnits="userSpaceOnUse" x1="155.9434" y1="103.68" x2="113.2384" y2="103.68" gradientTransform="matrix(1 0 0 -1 -1 302)">
	<stop  offset="0.3652" style="stop-color:#BDDFF3"/>
	<stop  offset="1" style="stop-color:#FFFFFF"/>
</linearGradient>
<path class="st15" d="M111.5,198.3c0-3.9,1.6-6.3,4.4-6.3c2.8,0,4.4,2.3,4.4,6.3c0,3.9-1.6,6.3-4.4,6.3
	C113.1,204.6,111.5,202.2,111.5,198.3z M118.5,198.3c0-2.9-0.9-4.6-2.6-4.6c-1.7,0-2.6,1.7-2.6,4.6c0,3,0.9,4.6,2.6,4.6
	C117.6,202.9,118.5,201.3,118.5,198.3z"/>
<linearGradient id="SVGID_5_" gradientUnits="userSpaceOnUse" x1="155.9395" y1="103.68" x2="113.2392" y2="103.68" gradientTransform="matrix(1 0 0 -1 -1 302)">
	<stop  offset="0.3652" style="stop-color:#BDDFF3"/>
	<stop  offset="1" style="stop-color:#FFFFFF"/>
</linearGradient>
<path class="st16" d="M122.8,198.3c0-3.9,1.6-6.3,4.4-6.3c2.8,0,4.4,2.3,4.4,6.3c0,3.9-1.6,6.3-4.4,6.3
	C124.4,204.6,122.8,202.2,122.8,198.3z M129.8,198.3c0-2.9-0.9-4.6-2.6-4.6c-1.7,0-2.6,1.7-2.6,4.6c0,3,0.9,4.6,2.6,4.6
	C128.8,202.9,129.8,201.3,129.8,198.3z"/>
<linearGradient id="SVGID_6_" gradientUnits="userSpaceOnUse" x1="155.937" y1="103.68" x2="113.2414" y2="103.68" gradientTransform="matrix(1 0 0 -1 -1 302)">
	<stop  offset="0.3652" style="stop-color:#BDDFF3"/>
	<stop  offset="1" style="stop-color:#FFFFFF"/>
</linearGradient>
<path class="st17" d="M134,198.3c0-3.9,1.6-6.3,4.4-6.3c2.8,0,4.4,2.3,4.4,6.3c0,3.9-1.6,6.3-4.4,6.3
	C135.6,204.6,134,202.2,134,198.3z M141.1,198.3c0-2.9-0.9-4.6-2.6-4.6c-1.7,0-2.6,1.7-2.6,4.6c0,3,0.9,4.6,2.6,4.6
	C140.1,202.9,141.1,201.3,141.1,198.3z"/>
<g>
	
		<linearGradient id="SVGID_7_" gradientUnits="userSpaceOnUse" x1="8.251" y1="-4.1285" x2="111.212" y2="-4.1285" gradientTransform="matrix(1 0 0 -1 -1 302)">
		<stop  offset="0" style="stop-color:#FFFFFF"/>
		<stop  offset="0.1796" style="stop-color:#BDDFF3"/>
		<stop  offset="0.4977" style="stop-color:#BDDFF3"/>
		<stop  offset="0.8089" style="stop-color:#BDDFF3"/>
		<stop  offset="1" style="stop-color:#FFFFFF"/>
	</linearGradient>
	<path class="st18" d="M101.9,267.9H70.4c0,0,0,2.5,0,3.3c0.4,16-26,17.4-26.6,0c0-0.8,0-3.3,0-3.3H15.6c-4.6,0-8.3,3.7-8.3,8.3V336
		c0,4.6,3.7,8.3,8.3,8.3h86.3c4.6,0,8.3-3.7,8.3-8.3v-59.8C110.2,271.7,106.5,267.9,101.9,267.9z"/>
	<path class="st0" d="M99.7,266.8H68.2c0,0,0,2.5,0,3.3c0.4,16-22.6,17.4-23.2,0c0-0.8,0-3.3,0-3.3H13.4c-4.6,0-8.3,3.7-8.3,8.3
		v59.8c0,4.6,3.7,8.3,8.3,8.3h86.3c4.6,0,8.3-3.7,8.3-8.3v-59.8C108,270.5,104.3,266.8,99.7,266.8z"/>
	<path class="st0" d="M56.5,280.1c5.5,0,10-4.5,10-10v-19.9H46.6v19.9C46.5,275.6,51,280.1,56.5,280.1z M49.9,253.5h13.3v16.6
		c0,3.7-3,6.6-6.6,6.6s-6.6-3-6.6-6.6L49.9,253.5L49.9,253.5z"/>
	<path class="st11" d="M56.5,273.5c2.8,0,5-2.2,5-5c0-2.8-2.2-5-5-5s-5,2.2-5,5C51.5,271.2,53.8,273.5,56.5,273.5z M56.5,266.8
		c0.9,0,1.7,0.8,1.7,1.7c0,0.9-0.7,1.7-1.7,1.7s-1.7-0.7-1.7-1.7C54.9,267.6,55.6,266.8,56.5,266.8z"/>
	<path class="st3" d="M42.5,312.8c1.9-1.7,3.2-4.2,3.2-6.9c0-5.1-4.1-9.1-9.1-9.1c-5,0-9.1,4.1-9.1,9.1c0,2.8,1.2,5.2,3.2,6.9
		c-6.2,2.4-10.7,8.4-10.7,15.5h3.3c0-7.3,6-13.3,13.3-13.3c3.7,0,7,1.5,9.4,3.9c2.4,2.4,3.9,5.7,3.9,9.4h3.3
		C53.2,321.2,48.8,315.2,42.5,312.8z M36.6,311.7c-1.6,0-3.1-0.7-4.1-1.7c-1.1-1.1-1.7-2.5-1.7-4.1c0-3.2,2.6-5.8,5.8-5.8
		c3.2,0,5.8,2.6,5.8,5.8C42.4,309.1,39.8,311.7,36.6,311.7z"/>
	<rect x="64.8" y="290" class="st3" width="33.2" height="3.3"/>
	<rect x="64.8" y="301.6" class="st3" width="33.2" height="3.3"/>
	<rect x="64.8" y="313.2" class="st3" width="33.2" height="3.3"/>
	<rect x="81.4" y="324.9" class="st11" width="3.3" height="3.3"/>
	<rect x="74.8" y="324.9" class="st11" width="3.3" height="3.3"/>
	<rect x="88.1" y="324.9" class="st11" width="3.3" height="3.3"/>
	<path class="st3" d="M58.2,328.3v-41.5H15v41.5h0v3.3h43.2L58.2,328.3L58.2,328.3z M54.9,290.1v38.2H18.3v-38.2H54.9z"/>
</g>
</svg>
