<?xml version="1.0" encoding="utf-8"?>
<!-- Generator: Adobe Illustrator 20.0.0, SVG Export Plug-In . SVG Version: 6.00 Build 0)  -->
<svg version="1.1" id="art" xmlns="http://www.w3.org/2000/svg" xmlns:xlink="http://www.w3.org/1999/xlink" x="0px" y="0px"
	 viewBox="0 0 400 401" style="enable-background:new 0 0 400 401;" xml:space="preserve">
<style type="text/css">
	.st0{fill:#FFFFFF;}
	.st1{fill:#2395D6;}
	.st2{fill:#FFFFFF;stroke:#2395D6;stroke-width:3.24;stroke-miterlimit:10;}
	.st3{opacity:0.15;fill:#2395D6;enable-background:new    ;}
	.st4{opacity:0.15;}
	.st5{opacity:0.2;fill:#2395D6;enable-background:new    ;}
	.st6{opacity:0.2;}
	.st7{opacity:0.5;fill:#2395D6;enable-background:new    ;}
	.st8{opacity:0.5;}
	.st9{fill:none;stroke:#2395D6;stroke-miterlimit:10;}
	.st10{fill:none;stroke:#2395D6;stroke-miterlimit:10;stroke-dasharray:6.0287,6.0287;}
	.st11{fill:none;stroke:#2395D6;stroke-miterlimit:10;stroke-dasharray:6.0059,6.0059;}
</style>
<g>
	<g>
		<g>
			<rect x="295.7" y="269.3" class="st0" width="98.2" height="49.1"/>
			<path class="st1" d="M393.8,269.3v49.1h-98.2v-49.1L393.8,269.3 M395,268.1h-1.2h-98.2h-1.2v1.2v49.1v1.2h1.2h98.2h1.2v-1.2
				v-49.1L395,268.1L395,268.1z"/>
		</g>
		<g>
			<rect x="292.2" y="265.8" class="st0" width="98.2" height="49.1"/>
			<path class="st1" d="M390.3,265.8v49.1h-98.2v-49.1H390.3 M391.5,264.6h-1.2h-98.2H291v1.2v49.1v1.2h1.2h98.2h1.2v-1.2v-49.1
				V264.6L391.5,264.6z"/>
		</g>
		<g>
			<rect x="288.6" y="262.3" class="st0" width="98.2" height="49.1"/>
			<path class="st1" d="M388,312.5H287.5v-51.4H388L388,312.5L388,312.5z M289.8,310.2h95.8v-46.7h-95.8V310.2z"/>
		</g>
		<path class="st1" d="M375.1,267c0,3.9,3.2,7,7,7v25.7c-3.9,0-7,3.2-7,7h-74.8c0-3.9-3.2-7-7-7V274c3.9,0,7-3.2,7-7H375.1
			 M376.3,265.8h-1.2h-74.8h-1.2v1.2c0,3.3-2.6,5.8-5.8,5.8h-1.2v1.2v25.7v1.2h1.2c3.3,0,5.8,2.6,5.8,5.8v1.2h1.2h74.8h1.2v-1.2
			c0-3.3,2.6-5.8,5.8-5.8h1.2v-1.2V274v-1.2h-1.2c-3.3,0-5.8-2.6-5.8-5.8V265.8L376.3,265.8z"/>
		<path class="st1" d="M337.7,272.6c6.1,0,11.1,6.4,11.1,14.3c0,7.8-4.9,14.3-11.1,14.3c-6.2,0-11.1-6.4-11.1-14.3
			C326.6,279,331.7,272.6,337.7,272.6 M337.7,271.4c-6.8,0-12.3,6.9-12.3,15.4c0,8.5,5.5,15.4,12.3,15.4c6.8,0,12.3-6.9,12.3-15.4
			C350,278.3,344.5,271.4,337.7,271.4L337.7,271.4z"/>
		<g>
			<g id="XMLID_7_">
				<path id="XMLID_1_" class="st2" d="M137.9,71.7l93.1,11.6v170.5c0,12.8-6.9,24.6-18.1,30.9l-75,42.2l-75-42.2
					c-11.1-6.3-18.1-18.1-18.1-30.9V83.4L137.9,71.7 M137.9,48.4L21.7,62.9v190.9c0,21.2,11.4,40.7,29.8,51l86.4,48.6l86.4-48.6
					c18.4-10.4,29.9-29.9,29.9-51V62.9L137.9,48.4L137.9,48.4z"/>
			</g>
			<path id="XMLID_4_" class="st3" d="M137.9,353.5l86.4-48.6c18.4-10.4,29.9-29.9,29.9-51V62.9L137.9,48.4v24.5l94.2,11.8v159.1
				c0,17.1-9.3,33-24.2,41.4l-70,39.4L137.9,353.5L137.9,353.5z"/>
			<g id="XMLID_5_" class="st4">
				<path id="XMLID_6_" class="st1" d="M209.9,287.7l-72,40.5l-72-40.5C50.5,279.1,41,262.8,41,245.2V81.5l96.9-12.1l96.9,12.1
					v163.7C234.8,262.8,225.3,279.1,209.9,287.7z"/>
			</g>
			<g id="XMLID_2_">
				<path id="XMLID_3_" class="st2" d="M137.9,113.8c-20.1,0-36.3,16.3-36.3,36.3c0,14.9,9,27.7,21.8,33.3v12.4h6.4
					c2.9,0,5.2,2.3,5.2,5.2c0,2.9-2.3,5.2-5.2,5.2h-6.4v11.4h6.4c2.9,0,5.2,2.3,5.2,5.2c0,2.9-2.3,5.2-5.2,5.2h-6.4v11.4h6.4
					c2.9,0,5.2,2.3,5.2,5.2c0,2.9-2.3,5.2-5.2,5.2h-6.4v16.6l14.5,7.3l14.5-7.3v-82.9c12.8-5.6,21.8-18.4,21.8-33.3
					C174.2,130,157.9,113.8,137.9,113.8z M137.9,152.6c-5.4,0-9.8-4.4-9.8-9.8c0-5.4,4.4-9.8,9.8-9.8c5.4,0,9.8,4.4,9.8,9.8
					C147.7,148.2,143.3,152.6,137.9,152.6z"/>
			</g>
		</g>
		<g>
			<path class="st5" d="M84.1,56.6H76V45.5c0-2.2,1.9-4.1,4.1-4.1l0,0c2.2,0,4.1,1.9,4.1,4.1L84.1,56.6L84.1,56.6z"/>
			<path class="st1" d="M85.3,56.6l-10.5,1.2V45.5c0-2.9,2.3-5.3,5.3-5.3c2.9,0,5.3,2.3,5.3,5.3V56.6z M77.1,55.4l5.8-1.2v-8.8
				c0-1.6-1.3-2.9-2.9-2.9c-1.6,0-2.9,1.3-2.9,2.9V55.4z"/>
			<g>
				<path class="st0" d="M71.9,120.8H16.4V45.5c0-2.2,1.9-4.1,4.1-4.1h60.2H80c-2.2,0-4.1,1.9-4.1,4.1v71.3
					C76,119,74.1,120.8,71.9,120.8z"/>
				<path class="st1" d="M71.9,122H15.2V45.5c0-2.9,2.3-5.3,5.3-5.3h60.2v2.3H80c-1.6,0-2.9,1.3-2.9,2.9v71.3
					C77.1,119.7,74.8,122,71.9,122z M17.5,119.7h54.3c1.6,0,2.9-1.3,2.9-2.9V45.5c0-1.1,0.4-2.1,0.9-2.9H20.4
					c-1.6,0-2.9,1.3-2.9,2.9L17.5,119.7L17.5,119.7z"/>
			</g>
			<g>
				<path class="st0" d="M67.8,111.5H8.2v5.3c0,2.2,1.9,4.1,4.1,4.1h60.2h-0.6c-2.2,0-4.1-1.9-4.1-4.1L67.8,111.5L67.8,111.5z"/>
			</g>
			<g class="st6">
				<path class="st1" d="M67.8,111.5H8.2v5.3c0,2.2,1.9,4.1,4.1,4.1h60.2h-0.6c-2.2,0-4.1-1.9-4.1-4.1L67.8,111.5L67.8,111.5z"/>
			</g>
			<g>
				<path class="st1" d="M72.4,122H12.3c-2.9,0-5.3-2.3-5.3-5.3v-6.4h61.9v6.4c0,1.6,1.3,2.9,2.9,2.9h0.6V122z M9.3,112.7v4.1
					c0,1.6,1.3,2.9,2.9,2.9h55.3c-0.6-0.8-0.9-1.9-0.9-2.9v-4.1H9.3z"/>
			</g>
			<rect x="40.9" y="49.5" class="st7" width="26.9" height="1.2"/>
			<rect x="40.9" y="55.4" class="st7" width="26.9" height="1.2"/>
			<rect x="40.9" y="61.2" class="st7" width="26.9" height="1.2"/>
			<rect x="40.9" y="67.1" class="st7" width="26.9" height="1.2"/>
			<rect x="24.5" y="72.9" class="st7" width="43.2" height="1.2"/>
			<rect x="24.5" y="78.8" class="st7" width="43.2" height="1.2"/>
			<rect x="24.5" y="84.6" class="st7" width="43.2" height="1.2"/>
			<rect x="24.5" y="90.4" class="st7" width="43.2" height="1.2"/>
			<rect x="24.5" y="96.3" class="st7" width="43.2" height="1.2"/>
			<rect x="24.5" y="102.1" class="st7" width="43.2" height="1.2"/>
			<g class="st8">
				<g>
					<path class="st1" d="M24.9,69.8V50.1h2l4.6,9.9c1.1,2.3,1.9,4.4,2.6,6.4l0,0c-0.2-2.6-0.2-5-0.2-8.1v-8.2h1.7v19.6h-1.9
						l-4.5-10c-1-2.2-2-4.4-2.7-6.6l-0.1,0c0.1,2.5,0.1,4.8,0.1,8.1v8.4L24.9,69.8L24.9,69.8L24.9,69.8z"/>
				</g>
				<rect x="22.5" y="57.5" class="st1" width="15.2" height="1.9"/>
				<rect x="22.5" y="62" class="st1" width="15.2" height="1.8"/>
			</g>
		</g>
	</g>
	<g>
		<g>
			<path class="st9" d="M317.2,342.4c-0.9,0.7-1.8,1.5-2.7,2.2"/>
			<path class="st10" d="M308.9,348.9c-30.2,22.3-67.5,35.5-107.9,35.5c-42.2,0-81.1-14.4-111.9-38.5"/>
			<path class="st9" d="M86.3,343.7c-0.9-0.7-1.8-1.5-2.7-2.2"/>
		</g>
	</g>
	<g>
		<g>
			<path class="st9" d="M101.2,41.4c1-0.6,2-1.3,2.9-1.9"/>
			<path class="st11" d="M110.1,35.9c26.7-15.5,57.8-24.3,90.9-24.3c100.4,0,181.7,81.4,181.7,181.7c0,12.6-1.3,24.9-3.7,36.8"/>
			<path class="st9" d="M378.3,233.5c-0.3,1.1-0.5,2.3-0.8,3.4"/>
		</g>
	</g>
</g>
</svg>
