<?xml version="1.0" encoding="utf-8"?>
<!-- Generator: Adobe Illustrator 16.0.0, SVG Export Plug-In . SVG Version: 6.00 Build 0)  -->
<!DOCTYPE svg PUBLIC "-//W3C//DTD SVG 1.1//EN" "http://www.w3.org/Graphics/SVG/1.1/DTD/svg11.dtd">
<svg version="1.1" id="art" xmlns="http://www.w3.org/2000/svg" xmlns:xlink="http://www.w3.org/1999/xlink" x="0px" y="0px"
	 width="512px" height="428.336px" viewBox="0 0 512 428.336" enable-background="new 0 0 512 428.336" xml:space="preserve">
<g>
	<g opacity="0.3">
		<g>
			<polygon fill="#FFFFFF" points="501.84,300.764 362.672,300.764 362.672,120.774 477.719,120.774 501.84,144.897 			"/>
			<path fill="#2395D6" d="M477.719,120.774l24.122,24.122v155.865H362.673V120.774H477.719 M477.719,117.063H362.672
				c-2.04,0-3.708,1.67-3.708,3.712v179.988c0,2.042,1.669,3.71,3.708,3.71H501.84c2.039,0,3.713-1.668,3.713-3.71V144.897
				c0-0.931-0.375-1.854-1.112-2.599l-24.122-24.123C479.573,117.436,478.647,117.063,477.719,117.063L477.719,117.063z"/>
		</g>
		<polygon opacity="0.2" fill="#2395D6" enable-background="new    " points="477.719,146.751 501.84,146.751 501.84,169.019 		"/>
		<g>
			<polygon fill="#FFFFFF" points="501.84,144.897 477.719,144.897 477.719,120.774 			"/>
			<path fill="#2395D6" d="M477.719,120.774l24.122,24.122h-24.122V120.774 M477.719,118.919c-0.184,0-0.551,0-0.742,0.187
				c-0.74,0.371-1.111,0.926-1.111,1.671v24.121c0,1.113,0.745,1.856,1.855,1.856h24.122c0.741,0,1.483-0.375,1.671-1.113
				c0.367-0.742,0.182-1.487-0.371-2.042l-24.124-24.125C478.647,119.106,478.273,118.919,477.719,118.919L477.719,118.919z"/>
		</g>
		<g>
			<circle fill="#FFFFFF" cx="434.379" cy="237.043" r="31.545"/>
			<path fill="#2395D6" d="M434.379,205.499c17.442,0,31.543,14.104,31.543,31.544c0,17.447-14.101,31.547-31.543,31.547
				c-17.447,0-31.547-14.104-31.547-31.547C402.832,219.603,416.932,205.499,434.379,205.499 M434.379,203.645
				c-18.376,0-33.401,15.028-33.401,33.398c0,18.373,15.025,33.4,33.401,33.4c18.371,0,33.397-15.027,33.397-33.4
				C467.776,218.673,452.75,203.645,434.379,203.645L434.379,203.645z"/>
		</g>
		<g opacity="0.3">
			<path fill="#2395D6" d="M434.379,211.067c16.512,0,30.06,12.617,31.354,28.76c0-0.928,0.184-1.856,0.184-2.784
				c0-17.44-14.101-31.544-31.544-31.544c-17.447,0-31.544,14.104-31.544,31.544c0,0.933,0,1.857,0.18,2.784
				C404.315,223.686,417.862,211.067,434.379,211.067z"/>
		</g>
		<rect x="384.936" y="143.04" opacity="0.4" fill="#2395D6" enable-background="new    " width="48.247" height="3.712"/>
		<rect x="384.936" y="150.46" opacity="0.4" fill="#2395D6" enable-background="new    " width="48.247" height="3.712"/>
		<rect x="384.936" y="157.882" opacity="0.4" fill="#2395D6" enable-background="new    " width="94.639" height="3.712"/>
		<rect x="384.936" y="165.307" opacity="0.4" fill="#2395D6" enable-background="new    " width="94.639" height="3.712"/>
		<rect x="384.936" y="172.731" opacity="0.4" fill="#2395D6" enable-background="new    " width="94.639" height="3.709"/>
		<g>
			<path fill="#2395D6" d="M431.918,230.971c0,5.86-3.079,8.77-6.671,8.77c-3.462,0-6.456-2.781-6.499-8.383
				c0-5.56,3.037-8.68,6.712-8.68C429.351,222.678,431.918,225.669,431.918,230.971z M421.741,231.229
				c-0.085,3.549,1.239,6.242,3.59,6.242c2.481,0,3.593-2.651,3.593-6.327c0-3.379-0.982-6.202-3.593-6.202
				C422.981,224.941,421.741,227.724,421.741,231.229z M424.991,251.409l16.334-28.731h2.394l-16.334,28.731H424.991z
				 M450.005,242.475c0,5.857-3.077,8.768-6.629,8.768c-3.462,0-6.456-2.78-6.499-8.34c0-5.603,3.037-8.726,6.714-8.726
				C447.483,234.177,450.005,237.171,450.005,242.475z M439.828,242.731c-0.042,3.549,1.327,6.245,3.633,6.245
				c2.482,0,3.594-2.653,3.594-6.331c0-3.377-0.983-6.199-3.594-6.199C441.112,236.445,439.828,239.223,439.828,242.731z"/>
		</g>
	</g>
	
		<linearGradient id="SVGID_1_" gradientUnits="userSpaceOnUse" x1="362.2422" y1="361.3027" x2="449.6309" y2="361.3027" gradientTransform="matrix(1 0 0 -1 -0.5 435.8359)">
		<stop  offset="0" style="stop-color:#FFFFFF"/>
		<stop  offset="0.6348" style="stop-color:#BDDFF3"/>
	</linearGradient>
	<path opacity="0.3" fill="url(#SVGID_1_)" enable-background="new    " d="M399.378,53.313c5.321-4.329,13.146-5.216,19.299-2.086
		c3.392,1.773,7.302,0.939,10.953,1.096c4.226,0.156,8.502-0.47,12.675,0.521c-0.261,0.938-0.417,2.242-1.72,2.033
		c-5.373,0.261-10.745-0.103-16.118,0.104c1.461,2.243,2.712,4.59,3.809,7.042c0.886,2.086,3.441,2.399,5.11,3.704
		c2.295,1.513,3.077,4.224,4.59,6.416c1.669,1.2,3.808,1.565,5.529,2.816c6.468,4.329,7.667,14.813,1.982,20.29
		c-2.766,3.181-7.042,4.433-11.111,4.433c-18.985,0-37.971-0.052-56.905,0c-4.434,0.209-9.18-1.043-12.152-4.485
		c-5.426-5.477-4.538-15.544,1.721-20.03c2.66-2.19,6.259-2.608,9.597-2.869c0.573-1.982,0.991-4.016,1.982-5.842
		c1.564-2.817,4.484-4.746,7.563-5.476c2.295-0.575,4.643-0.105,6.938,0.208C395.049,58.477,396.562,55.294,399.378,53.313
		L399.378,53.313z"/>
	
		<linearGradient id="SVGID_2_" gradientUnits="userSpaceOnUse" x1="70.1533" y1="368.8906" x2="187.6177" y2="368.8906" gradientTransform="matrix(1 0 0 -1 -0.5 435.8359)">
		<stop  offset="0" style="stop-color:#FFFFFF"/>
		<stop  offset="0.6348" style="stop-color:#BDDFF3"/>
	</linearGradient>
	<path opacity="0.5" fill="url(#SVGID_2_)" enable-background="new    " d="M113.627,41.633c6.52-2.764,14.188-2.242,20.342,1.096
		c3.912,1.982,6.886,5.268,9.337,8.867c2.712-0.208,5.737-0.365,8.032,1.408c2.452,1.513,3.391,4.329,4.068,6.937
		c3.129,0.521,6.468,0.835,8.971,2.973c2.608,1.825,4.069,4.746,5.424,7.511c3.601-1.043,7.615-1.408,10.955,0.626
		c5.477,2.712,7.824,9.858,5.424,15.439c-1.513,3.703-4.956,6.572-8.866,7.25c-2.87,0.469-5.738,0.208-8.607,0.26
		c-27.123,0-54.246,0-81.369,0c-3.599-0.052-7.407,0.47-10.745-1.2c-4.851-2.19-7.771-7.875-6.728-13.091
		c0.729-5.321,5.373-9.702,10.745-10.067c1.825-0.156,3.649,0.104,5.477,0.313c0.73-3.287,1.46-6.782,3.964-9.18
		c2.451-2.765,6.104-3.808,9.597-4.538c1.565-3.339,3.704-6.312,5.529-9.494c-3.703-0.365-7.562,0.521-11.214-0.626
		c0.156-0.626,0.261-1.252,0.365-1.93c4.276-0.365,8.606,0,12.884-0.157C109.611,44.034,111.541,42.468,113.627,41.633
		L113.627,41.633z"/>
	<path fill="#2395D6" d="M278.998,414.63l-1.021,0.096c-0.322,0.03-0.605-0.204-0.636-0.53c-0.031-0.32,0.206-0.604,0.526-0.636l0,0
		l1.019-0.096c1.984-0.19,3.975-0.412,5.913-0.656c0.291-0.031,0.614,0.186,0.652,0.507c0.041,0.322-0.188,0.612-0.504,0.653
		C282.995,414.215,280.993,414.438,278.998,414.63z M271.01,415.241c-0.007,0.001-0.015,0.002-0.021,0.002
		c-2.331,0.134-4.688,0.225-7.003,0.28c-0.325,0.007-0.592-0.25-0.6-0.575c-0.008-0.322,0.235-0.589,0.571-0.599
		c2.305-0.053,4.648-0.144,6.964-0.275c0.322-0.02,0.598,0.229,0.615,0.552C271.557,414.942,271.322,415.211,271.01,415.241z
		 M291.844,412.98c-0.303,0.029-0.582-0.186-0.631-0.491c-0.053-0.32,0.165-0.618,0.484-0.671c2.279-0.368,4.589-0.777,6.86-1.227
		c0.313-0.052,0.622,0.143,0.687,0.459c0.062,0.32-0.145,0.627-0.462,0.689c-2.285,0.447-4.603,0.861-6.896,1.232
		C291.869,412.978,291.858,412.979,291.844,412.98z M257.037,415.558c-0.021,0.002-0.042,0.001-0.064,0.002
		c-2.322-0.028-4.679-0.1-7.005-0.209c-0.323-0.017-0.573-0.288-0.557-0.61c0.014-0.322,0.278-0.565,0.61-0.559
		c2.313,0.108,4.654,0.181,6.964,0.207c0.323,0.005,0.583,0.27,0.579,0.592C257.563,415.281,257.333,415.529,257.037,415.558z
		 M305.555,410.281c-0.287,0.027-0.556-0.16-0.626-0.45c-0.071-0.314,0.125-0.631,0.439-0.703c2.269-0.531,4.54-1.104,6.756-1.697
		c0.307-0.082,0.634,0.098,0.718,0.41c0.085,0.313-0.1,0.635-0.412,0.718c-2.227,0.603-4.513,1.178-6.795,1.708
		C305.609,410.275,305.582,410.278,305.555,410.281z M243.081,414.898c-0.035,0.003-0.069,0.005-0.105,0.001
		c-2.323-0.19-4.672-0.424-6.976-0.694c-0.319-0.036-0.55-0.326-0.513-0.648c0.039-0.32,0.328-0.55,0.648-0.513
		c2.291,0.268,4.625,0.502,6.935,0.69c0.32,0.024,0.562,0.309,0.534,0.632C243.581,414.651,243.354,414.873,243.081,414.898z
		 M319.047,406.637c-0.272,0.026-0.532-0.139-0.614-0.41c-0.097-0.309,0.079-0.637,0.389-0.729c2.193-0.677,4.423-1.402,6.622-2.169
		c0.316-0.1,0.639,0.06,0.744,0.359c0.104,0.307-0.057,0.641-0.36,0.746c-2.212,0.769-4.452,1.501-6.663,2.181
		C319.125,406.626,319.086,406.633,319.047,406.637z M229.2,413.271c-0.048,0.005-0.096,0.004-0.146-0.007
		c-2.306-0.352-4.63-0.749-6.909-1.177c-0.316-0.062-0.525-0.366-0.466-0.686c0.062-0.318,0.368-0.527,0.685-0.467
		c2.266,0.428,4.577,0.822,6.87,1.174c0.319,0.051,0.537,0.35,0.488,0.671C229.679,413.048,229.46,413.245,229.2,413.271z
		 M332.25,402.059c-0.255,0.023-0.504-0.121-0.601-0.371c-0.119-0.302,0.03-0.643,0.333-0.756c2.151-0.83,4.322-1.717,6.457-2.629
		c0.294-0.121,0.642,0.012,0.766,0.311c0.127,0.297-0.011,0.642-0.307,0.767c-2.145,0.916-4.327,1.808-6.494,2.642
		C332.355,402.041,332.302,402.052,332.25,402.059z M215.45,410.669c-0.062,0.007-0.122,0.001-0.185-0.011
		c-2.276-0.514-4.571-1.074-6.826-1.67c-0.313-0.081-0.5-0.401-0.417-0.712c0.083-0.314,0.406-0.506,0.715-0.419
		c2.241,0.591,4.523,1.146,6.785,1.657c0.315,0.071,0.514,0.388,0.442,0.699C215.906,410.469,215.692,410.646,215.45,410.669z
		 M345.098,396.564c-0.239,0.022-0.477-0.104-0.586-0.332c-0.139-0.291-0.012-0.643,0.281-0.777c2.101-0.987,4.208-2.021,6.253-3.07
		c0.287-0.145,0.641-0.033,0.79,0.252c0.143,0.289,0.034,0.641-0.255,0.792c-2.057,1.054-4.175,2.095-6.291,3.087
		C345.227,396.542,345.166,396.561,345.098,396.564z M201.902,407.107c-0.073,0.007-0.148-0.003-0.224-0.024
		c-2.237-0.673-4.489-1.396-6.688-2.142c-0.307-0.104-0.468-0.436-0.365-0.74c0.102-0.305,0.433-0.471,0.743-0.364
		c2.185,0.741,4.423,1.458,6.647,2.129c0.31,0.092,0.484,0.42,0.393,0.729C202.336,406.927,202.133,407.085,201.902,407.107z
		 M357.516,390.195c-0.224,0.021-0.448-0.09-0.566-0.299c-0.158-0.28-0.056-0.639,0.225-0.797c2.009-1.119,4.028-2.293,6.01-3.49
		c0.275-0.164,0.636-0.08,0.804,0.197c0.168,0.275,0.075,0.637-0.199,0.803c-1.992,1.203-4.025,2.387-6.043,3.515
		C357.673,390.164,357.594,390.188,357.516,390.195z M188.644,402.604c-0.086,0.008-0.175-0.002-0.262-0.037
		c-2.187-0.828-4.379-1.703-6.519-2.602c-0.3-0.126-0.439-0.469-0.313-0.77c0.126-0.297,0.469-0.433,0.767-0.313
		c2.129,0.896,4.309,1.768,6.479,2.59c0.303,0.116,0.456,0.452,0.34,0.754C189.054,402.443,188.861,402.581,188.644,402.604z
		 M369.445,382.982c-0.209,0.021-0.426-0.074-0.547-0.264c-0.178-0.271-0.101-0.634,0.17-0.813c1.928-1.256,3.861-2.566,5.756-3.901
		c0.264-0.183,0.63-0.124,0.814,0.142c0.188,0.265,0.123,0.629-0.142,0.816c-1.902,1.339-3.848,2.659-5.788,3.928
		C369.626,382.941,369.535,382.975,369.445,382.982z M175.742,397.188c-0.101,0.01-0.202-0.004-0.299-0.051
		c-2.119-0.978-4.246-2.004-6.319-3.051c-0.291-0.145-0.405-0.496-0.259-0.787c0.143-0.288,0.497-0.4,0.784-0.258
		c2.063,1.041,4.178,2.059,6.282,3.034c0.293,0.133,0.42,0.483,0.286,0.776C176.129,397.045,175.942,397.169,175.742,397.188z
		 M380.846,374.951c-0.194,0.02-0.395-0.063-0.521-0.232c-0.193-0.258-0.145-0.624,0.114-0.818c1.841-1.396,3.685-2.842,5.471-4.297
		c0.253-0.203,0.62-0.168,0.823,0.084c0.204,0.25,0.168,0.621-0.081,0.822c-1.801,1.465-3.654,2.919-5.508,4.324
		C381.055,374.902,380.951,374.941,380.846,374.951z M163.253,390.887c-0.113,0.01-0.23-0.013-0.338-0.07
		c-2.029-1.112-4.077-2.283-6.088-3.479c-0.278-0.167-0.37-0.524-0.204-0.801c0.166-0.279,0.521-0.374,0.8-0.204
		c2,1.191,4.038,2.354,6.055,3.463c0.283,0.154,0.388,0.512,0.231,0.795C163.612,390.762,163.436,390.868,163.253,390.887z
		 M391.676,366.143c-0.183,0.018-0.369-0.049-0.497-0.199c-0.213-0.241-0.186-0.61,0.056-0.823c1.751-1.528,3.486-3.099,5.163-4.669
		c0.235-0.219,0.605-0.209,0.827,0.027c0.223,0.233,0.208,0.605-0.029,0.825c-1.688,1.58-3.435,3.16-5.196,4.694
		C391.907,366.083,391.793,366.131,391.676,366.143z M151.233,383.734c-0.126,0.013-0.256-0.018-0.372-0.088
		c-1.956-1.258-3.918-2.569-5.831-3.896c-0.266-0.182-0.333-0.547-0.148-0.813c0.185-0.265,0.549-0.332,0.815-0.146
		c1.9,1.318,3.851,2.623,5.798,3.874c0.271,0.173,0.349,0.534,0.176,0.808C151.57,383.626,151.406,383.718,151.233,383.734z
		 M401.868,356.6c-0.167,0.017-0.338-0.039-0.468-0.166c-0.229-0.229-0.229-0.601-0.002-0.83c1.627-1.629,3.25-3.313,4.829-5.013
		c0.223-0.239,0.59-0.252,0.823-0.03c0.238,0.221,0.254,0.59,0.032,0.825c-1.586,1.71-3.223,3.405-4.856,5.048
		C402.128,356.529,402.001,356.588,401.868,356.6z M139.742,375.771c-0.141,0.014-0.285-0.022-0.405-0.112
		c-1.859-1.388-3.724-2.828-5.547-4.288c-0.252-0.201-0.293-0.566-0.09-0.819c0.2-0.252,0.568-0.296,0.821-0.093
		c1.81,1.45,3.667,2.885,5.514,4.262c0.26,0.194,0.313,0.563,0.12,0.819C140.053,375.676,139.901,375.756,139.742,375.771z
		 M411.383,346.372c-0.151,0.014-0.31-0.033-0.437-0.14c-0.245-0.215-0.272-0.582-0.058-0.828c1.525-1.758,3.031-3.553,4.475-5.342
		c0.205-0.25,0.57-0.287,0.822-0.084c0.25,0.203,0.288,0.571,0.085,0.822c-1.452,1.794-2.966,3.604-4.5,5.37
		C411.666,346.289,411.525,346.357,411.383,346.372z M128.833,367.036c-0.151,0.015-0.311-0.033-0.438-0.14
		c-1.757-1.51-3.519-3.078-5.233-4.658c-0.237-0.223-0.253-0.59-0.034-0.827c0.218-0.237,0.588-0.254,0.827-0.032
		c1.706,1.572,3.457,3.128,5.206,4.631c0.245,0.213,0.271,0.579,0.062,0.823C129.12,366.952,128.977,367.021,128.833,367.036z
		 M420.172,335.504c-0.142,0.014-0.289-0.021-0.408-0.115c-0.258-0.193-0.312-0.562-0.113-0.816c1.392-1.85,2.77-3.748,4.094-5.643
		c0.187-0.262,0.55-0.328,0.813-0.145c0.266,0.188,0.329,0.552,0.146,0.816c-1.336,1.904-2.722,3.812-4.12,5.67
		C420.481,335.41,420.326,335.49,420.172,335.504z M118.558,357.566c-0.166,0.017-0.339-0.039-0.468-0.166
		c-1.652-1.633-3.301-3.315-4.896-5.006c-0.224-0.233-0.214-0.607,0.022-0.826c0.236-0.224,0.606-0.211,0.827,0.024
		c1.588,1.679,3.227,3.354,4.872,4.978c0.229,0.229,0.229,0.597,0.004,0.826C118.819,357.498,118.69,357.554,118.558,357.566z
		 M428.187,324.054c-0.125,0.013-0.256-0.016-0.375-0.092c-0.268-0.174-0.344-0.539-0.172-0.808c1.255-1.93,2.497-3.918,3.698-5.913
		c0.169-0.275,0.525-0.366,0.801-0.196c0.279,0.164,0.366,0.521,0.201,0.801c-1.208,2.006-2.458,4.006-3.72,5.944
		C428.521,323.945,428.359,324.038,428.187,324.054z M108.967,347.417c-0.181,0.019-0.368-0.05-0.495-0.197
		c-1.547-1.754-3.073-3.546-4.54-5.333c-0.206-0.251-0.169-0.619,0.08-0.822c0.249-0.209,0.619-0.172,0.824,0.078
		c1.457,1.775,2.975,3.559,4.513,5.303c0.214,0.242,0.191,0.611-0.052,0.824C109.201,347.357,109.082,347.404,108.967,347.417z
		 M100.103,336.628c-0.194,0.019-0.395-0.063-0.521-0.226c-1.407-1.838-2.805-3.734-4.158-5.635
		c-0.186-0.264-0.124-0.627,0.137-0.816c0.265-0.186,0.63-0.126,0.816,0.139c1.343,1.889,2.733,3.773,4.132,5.6
		c0.196,0.26,0.147,0.627-0.106,0.822C100.309,336.579,100.207,336.617,100.103,336.628z M92.011,325.258
		c-0.208,0.02-0.421-0.074-0.544-0.261c-1.279-1.938-2.544-3.927-3.751-5.906c-0.169-0.274-0.081-0.636,0.194-0.803
		c0.276-0.171,0.637-0.082,0.804,0.19c1.203,1.969,2.458,3.946,3.731,5.873c0.179,0.271,0.104,0.633-0.165,0.813
		C92.196,325.215,92.106,325.248,92.011,325.258z M84.738,313.352c-0.225,0.021-0.449-0.084-0.566-0.293
		c-1.147-2.031-2.266-4.102-3.329-6.147c-0.147-0.287-0.038-0.642,0.249-0.791c0.287-0.146,0.641-0.037,0.79,0.251
		c1.059,2.039,2.171,4.096,3.311,6.113c0.157,0.279,0.06,0.639-0.222,0.799C84.895,313.322,84.818,313.344,84.738,313.352z
		 M78.314,300.979c-0.239,0.021-0.477-0.103-0.583-0.33c-0.994-2.093-1.969-4.232-2.891-6.364c-0.13-0.293,0.007-0.642,0.303-0.767
		c0.299-0.132,0.642,0.008,0.769,0.304c0.919,2.115,1.886,4.247,2.874,6.327c0.139,0.288,0.015,0.641-0.277,0.777
		C78.446,300.956,78.381,300.974,78.314,300.979z M72.769,288.174c-0.253,0.025-0.503-0.118-0.6-0.367
		c-0.846-2.16-1.668-4.368-2.439-6.563c-0.108-0.303,0.052-0.638,0.355-0.745c0.302-0.104,0.639,0.051,0.746,0.356
		c0.768,2.18,1.585,4.372,2.427,6.523c0.119,0.301-0.03,0.643-0.331,0.757C72.874,288.155,72.82,288.169,72.769,288.174z
		 M75.602,134.522c-0.097,0.009-0.194-0.005-0.291-0.046c-0.295-0.129-0.43-0.474-0.301-0.771c0.929-2.128,1.912-4.273,2.918-6.377
		c0.14-0.292,0.488-0.415,0.782-0.276c0.29,0.14,0.414,0.49,0.274,0.782c-1.001,2.091-1.979,4.225-2.902,6.341
		C75.992,134.375,75.805,134.502,75.602,134.522z M81.643,121.909c-0.109,0.01-0.222-0.01-0.326-0.064
		c-0.288-0.149-0.397-0.503-0.248-0.789c1.075-2.06,2.205-4.132,3.354-6.159c0.159-0.282,0.518-0.379,0.799-0.22
		c0.28,0.161,0.379,0.517,0.22,0.798c-1.144,2.015-2.267,4.074-3.336,6.123C82.01,121.778,81.834,121.89,81.643,121.909z
		 M88.183,109.663c-0.275-0.169-0.361-0.529-0.192-0.804c1.224-1.989,2.494-3.977,3.775-5.91c0.179-0.27,0.543-0.344,0.812-0.165
		c0.27,0.178,0.342,0.542,0.165,0.81c-1.275,1.922-2.537,3.898-3.752,5.877c-0.103,0.161-0.269,0.259-0.444,0.276
		C88.424,109.758,88.297,109.731,88.183,109.663 M375.623,50.757c-0.135,0.014-0.274-0.02-0.392-0.104
		c-1.89-1.334-3.828-2.657-5.764-3.926c-0.269-0.176-0.344-0.541-0.166-0.81c0.174-0.271,0.541-0.343,0.809-0.167
		c1.944,1.277,3.894,2.604,5.793,3.95c0.265,0.187,0.328,0.551,0.141,0.815C375.943,50.658,375.789,50.742,375.623,50.757z
		 M363.934,43.083c-0.119,0.012-0.247-0.014-0.358-0.081c-1.979-1.206-4.005-2.389-6.02-3.521c-0.283-0.159-0.385-0.516-0.225-0.797
		c0.155-0.282,0.514-0.382,0.796-0.223c2.028,1.138,4.065,2.329,6.056,3.541c0.275,0.167,0.362,0.527,0.196,0.803
		C364.28,42.968,364.112,43.065,363.934,43.083z M351.738,36.234c-0.111,0.011-0.221-0.01-0.325-0.063
		c-2.054-1.06-4.156-2.102-6.253-3.093c-0.292-0.139-0.418-0.486-0.277-0.779c0.138-0.292,0.487-0.416,0.779-0.277
		c2.106,0.997,4.222,2.044,6.289,3.112c0.289,0.147,0.398,0.5,0.25,0.788C352.107,36.104,351.929,36.216,351.738,36.234z
		 M151.268,44.388c0.271-0.174,0.635-0.095,0.81,0.178 M339.091,30.249c-0.097,0.009-0.196-0.006-0.287-0.045
		c-2.126-0.917-4.298-1.809-6.458-2.651c-0.301-0.118-0.45-0.458-0.333-0.759c0.116-0.302,0.455-0.451,0.757-0.332
		c2.174,0.847,4.359,1.745,6.497,2.668c0.296,0.128,0.435,0.471,0.306,0.769C339.482,30.101,339.294,30.229,339.091,30.249z
		 M157.585,41.803c-0.218,0.021-0.439-0.083-0.56-0.285c-0.165-0.277-0.074-0.637,0.206-0.801c2.007-1.188,4.055-2.351,6.087-3.458
		c0.282-0.156,0.638-0.049,0.793,0.234c0.152,0.283,0.052,0.639-0.233,0.793c-2.021,1.101-4.056,2.258-6.051,3.438
		C157.751,41.771,157.669,41.795,157.585,41.803z M326.048,25.156c-0.082,0.009-0.167-0.001-0.247-0.03
		c-2.189-0.767-4.422-1.504-6.631-2.195c-0.308-0.096-0.48-0.422-0.385-0.732c0.096-0.308,0.423-0.479,0.73-0.385
		c2.227,0.693,4.471,1.436,6.671,2.207c0.304,0.107,0.464,0.441,0.359,0.746C326.464,24.992,326.266,25.135,326.048,25.156z
		 M169.84,35.122c-0.233,0.022-0.468-0.098-0.58-0.32c-0.143-0.289-0.027-0.64,0.261-0.786c2.073-1.038,4.197-2.054,6.313-3.023
		c0.293-0.133,0.642-0.004,0.776,0.289c0.135,0.293,0.003,0.641-0.29,0.776c-2.103,0.961-4.213,1.972-6.274,3.004
		C169.977,35.095,169.908,35.114,169.84,35.122z M312.672,20.989c-0.068,0.007-0.141,0.001-0.211-0.019
		c-2.239-0.611-4.518-1.192-6.771-1.724c-0.313-0.074-0.511-0.388-0.435-0.703c0.073-0.315,0.387-0.513,0.703-0.435
		c2.265,0.536,4.558,1.118,6.813,1.734c0.311,0.084,0.498,0.407,0.41,0.719C313.114,20.803,312.906,20.966,312.672,20.989z
		 M182.525,29.316c-0.249,0.023-0.495-0.114-0.597-0.359c-0.124-0.297,0.018-0.641,0.315-0.763c2.136-0.888,4.325-1.754,6.505-2.573
		c0.303-0.11,0.641,0.039,0.753,0.343c0.115,0.302-0.039,0.64-0.341,0.752c-2.167,0.813-4.343,1.674-6.467,2.559
		C182.637,29.297,182.582,29.312,182.525,29.316z M299.029,17.771c-0.054,0.005-0.112,0.003-0.171-0.008
		c-2.261-0.451-4.568-0.868-6.855-1.241c-0.318-0.052-0.535-0.353-0.484-0.672c0.056-0.318,0.356-0.537,0.671-0.483
		c2.304,0.375,4.625,0.795,6.899,1.247c0.317,0.063,0.524,0.371,0.458,0.688C299.495,17.562,299.28,17.747,299.029,17.771z
		 M195.58,24.416c-0.263,0.025-0.522-0.133-0.608-0.396c-0.104-0.306,0.061-0.638,0.366-0.74c2.208-0.743,4.457-1.453,6.684-2.116
		c0.309-0.096,0.637,0.083,0.728,0.394c0.093,0.31-0.084,0.635-0.395,0.727c-2.213,0.658-4.448,1.365-6.644,2.103
		C195.668,24.4,195.623,24.411,195.58,24.416z M285.233,15.523c-0.041,0.003-0.085,0.005-0.127-0.002
		c-2.295-0.292-4.627-0.547-6.926-0.757c-0.322-0.03-0.56-0.314-0.529-0.638c0.031-0.324,0.322-0.559,0.637-0.528
		c2.316,0.212,4.662,0.469,6.968,0.762c0.322,0.041,0.549,0.334,0.509,0.654C285.724,15.291,285.5,15.497,285.233,15.523z
		 M208.976,20.428c-0.281,0.027-0.548-0.153-0.619-0.435c-0.083-0.313,0.104-0.631,0.418-0.712c2.242-0.583,4.533-1.137,6.813-1.646
		c0.319-0.081,0.628,0.127,0.699,0.443c0.068,0.314-0.129,0.627-0.444,0.699c-2.265,0.505-4.543,1.055-6.772,1.634
		C209.036,20.42,209.005,20.425,208.976,20.428z M271.324,14.247c-0.03,0.003-0.062,0.004-0.094,0.002
		c-2.305-0.131-4.647-0.221-6.963-0.271c-0.322-0.008-0.578-0.274-0.568-0.598c0.005-0.322,0.273-0.581,0.595-0.571
		c2.327,0.05,4.685,0.142,7.005,0.272c0.322,0.019,0.569,0.295,0.55,0.617C271.833,13.989,271.603,14.22,271.324,14.247z
		 M222.617,17.385c-0.3,0.029-0.574-0.174-0.632-0.474c-0.061-0.317,0.149-0.624,0.467-0.683c2.285-0.425,4.607-0.82,6.912-1.167
		c0.31-0.059,0.618,0.171,0.665,0.489c0.049,0.319-0.17,0.619-0.489,0.667c-2.291,0.344-4.602,0.736-6.872,1.16
		C222.653,17.382,222.635,17.384,222.617,17.385z M257.351,13.943c-0.02,0.002-0.034,0.003-0.054,0.003
		c-2.306,0.028-4.648,0.099-6.963,0.21c-0.323,0.015-0.596-0.234-0.609-0.558c-0.015-0.321,0.226-0.612,0.556-0.611
		c2.325-0.11,4.684-0.182,7.005-0.211c0.322-0.004,0.588,0.254,0.592,0.577C257.884,13.66,257.648,13.915,257.351,13.943z
		 M236.435,15.295c-0.316,0.03-0.6-0.197-0.637-0.515c-0.037-0.32,0.193-0.612,0.514-0.649c2.315-0.268,4.648-0.501,6.978-0.691
		c0.321-0.026,0.604,0.214,0.631,0.536c0.025,0.32-0.229,0.604-0.538,0.63c-2.312,0.19-4.633,0.421-6.936,0.688
		C236.444,15.295,236.44,15.295,236.435,15.295z"/>
	<path fill="#BDDFF3" d="M68.004,274.601c-0.271,0.024-0.53-0.141-0.614-0.408c-0.349-1.118-0.687-2.242-1.016-3.37
		c-0.092-0.311,0.087-0.636,0.396-0.726c0.312-0.089,0.637,0.09,0.728,0.396c0.327,1.12,0.664,2.236,1.01,3.349
		c0.097,0.309-0.076,0.638-0.385,0.732C68.082,274.587,68.042,274.595,68.004,274.601z"/>
	<g opacity="0.3">
		<path fill="#2395D6" d="M85.873,161.576c0-2.88,2.548-5.472,5.429-5.516c6.36-0.045,12.722,0,19.104-0.023
			c2.217-0.022,4.365,1.352,5.229,3.391c0.444,0.952,0.51,1.994,0.51,3.035c-0.021,32.511,0,64.999-0.021,97.51
			c0.088,1.175-1.042,2.127-2.194,1.994c-35.146-0.021-70.316,0-105.486-0.021c-0.953,0.064-1.795-0.665-1.995-1.573v-19.968
			c0.244-1.021,0.599-2.038,1.286-2.858c1.063-1.329,2.77-2.104,4.476-2.084c6.206,0.021,12.411,0,18.638,0
			c0.688,0,1.396,0.133,2.083,0.289c-0.021-7.069-0.021-14.141,0-21.208c0-2.238,1.506-4.364,3.591-5.141
			c1.219-0.509,2.548-0.399,3.834-0.399c5.628,0,11.235,0,16.863,0c0.732-0.021,1.463,0.111,2.194,0.265
			c-0.021-6.514,0-13.03,0-19.545c0-0.997-0.089-1.995,0.178-2.97c0.465-1.838,1.927-3.368,3.745-3.945
			c1.019-0.354,2.105-0.288,3.168-0.288c5.763,0,11.524,0,17.286,0c0.709,0,1.397,0.132,2.084,0.288
			C85.85,175.738,85.873,168.646,85.873,161.576 M89.662,161.798c-0.022,20.232,0,40.49,0,60.722
			c0.021,11.878-0.044,23.777,0.021,35.656c7.559,0,15.114,0,22.671,0c0-31.979,0-63.958,0-95.958c0-0.643-0.044-1.374-0.554-1.816
			c-0.532-0.599-1.352-0.599-2.083-0.577c-5.982,0-11.967-0.022-17.973,0C90.637,159.715,89.573,160.646,89.662,161.798
			 M63.179,188.369c0,23.27,0,46.539,0,69.808c7.535-0.021,15.093,0,22.627,0c0.022-23.202,0-46.382,0.022-69.563
			c-0.022-0.576,0.021-1.196-0.399-1.64c-0.441-0.553-1.196-0.708-1.86-0.663c-6.14,0-12.278-0.022-18.396,0
			C64.044,186.22,63.069,187.261,63.179,188.369 M37.206,213.39c-0.554,0.532-0.487,1.329-0.509,2.038
			c0.045,14.249-0.022,28.5,0.045,42.749c7.533,0,15.091,0,22.647,0c0-14.337,0-28.652,0-42.993
			c-0.022-0.642-0.022-1.373-0.554-1.838c-0.443-0.531-1.197-0.576-1.862-0.576c-5.894,0-11.811,0.022-17.729,0
			C38.514,212.77,37.717,212.792,37.206,213.39 M10.236,241.335c-0.022,5.605,0,11.233-0.022,16.842c7.558-0.021,15.092,0,22.648,0
			c0.022-5.541-0.022-11.079,0-16.598c0-0.576,0.022-1.219-0.399-1.663c-0.442-0.556-1.174-0.686-1.861-0.665
			c-6.139,0.022-12.276,0-18.394,0.022C11.078,239.186,10.103,240.227,10.236,241.335L10.236,241.335z"/>
		<path fill="#0B93E1" d="M29.893,160.204c0.443-0.355,1.042-0.377,1.573-0.377c5.629,0.022,11.236,0,16.865,0
			c0.665,0,1.307-0.044,1.972,0c0.82,0.133,1.529,0.909,1.552,1.75c-0.065,6.361,0,12.699-0.021,19.059
			c0.044,1.197-1.241,2.194-2.371,1.818c-0.909-0.199-1.507-1.13-1.418-2.039c0-4.719,0-9.441,0.022-14.161
			c-8.976,9.02-17.996,18.017-26.992,27.015c-0.731,0.819-2.15,0.797-2.814-0.067c-0.666-0.73-0.599-1.949,0.132-2.616
			c8.977-8.997,17.996-17.949,26.949-26.969c-4.698,0-9.396,0-14.094,0c-0.644,0.021-1.33-0.199-1.729-0.754
			C28.895,162.085,29.051,160.8,29.893,160.204L29.893,160.204z"/>
		<path opacity="0.3" fill="#2395D6" enable-background="new    " d="M89.662,161.798c-0.088-1.152,0.975-2.083,2.083-1.973
			c6.006-0.022,11.99,0,17.973,0c0.732-0.022,1.551-0.022,2.083,0.577c0.509,0.443,0.554,1.173,0.554,1.816c0,32,0,63.979,0,95.958
			c-7.557,0-15.112,0-22.671,0c-0.065-11.879,0-23.778-0.021-35.656C89.662,202.289,89.639,182.03,89.662,161.798L89.662,161.798z"
			/>
		<path fill="#FDFDFD" d="M63.179,188.369c-0.109-1.107,0.865-2.148,1.995-2.059c6.117-0.022,12.255,0,18.396,0
			c0.664-0.045,1.418,0.11,1.86,0.663c0.421,0.444,0.377,1.064,0.399,1.64c-0.022,23.182,0,46.361-0.022,69.563
			c-7.535,0-15.092-0.021-22.627,0C63.179,234.907,63.179,211.639,63.179,188.369L63.179,188.369z"/>
		<path opacity="0.3" fill="#2395D6" enable-background="new    " d="M37.206,213.39c0.511-0.598,1.308-0.62,2.039-0.62
			c5.918,0.022,11.835,0,17.729,0c0.666,0,1.419,0.045,1.862,0.576c0.531,0.465,0.531,1.196,0.554,1.838c0,14.341,0,28.656,0,42.993
			c-7.558,0-15.114,0-22.647,0c-0.067-14.249,0-28.5-0.045-42.749C36.719,214.719,36.652,213.921,37.206,213.39L37.206,213.39z"/>
		<path fill="#FDFDFD" d="M10.236,241.335c-0.134-1.108,0.842-2.149,1.972-2.062c6.117-0.022,12.255,0,18.394-0.022
			c0.688-0.021,1.418,0.109,1.861,0.665c0.422,0.444,0.399,1.087,0.399,1.663c-0.022,5.519,0.022,11.057,0,16.598
			c-7.558,0-15.092-0.021-22.648,0C10.236,252.568,10.214,246.94,10.236,241.335L10.236,241.335z"/>
	</g>
	<path fill="#2395D6" d="M299.868,60.059c3.301-0.806,7.098,1.545,7.53,4.991c0.202,2.412-0.305,5.163-2.221,6.805
		c-1.299,0.572-2.64-0.47-3.787-0.94c-2.313-1.322-5.017-1.784-7.14-3.363C294.663,64.355,296.423,60.705,299.868,60.059
		L299.868,60.059z"/>
	<path fill="#BDDFF3" stroke="#2395D6" stroke-width="2" stroke-miterlimit="10" d="M305.931,78.788
		c18.745,9.225,35.558,22.428,48.792,38.662c13.347,16.116,23.712,34.972,28.587,55.415c4.123,17.558,4.355,36.059,0.646,53.692
		c-2.88-3.512-6.234-6.517-9.369-9.771c-9.367-9.391-21.687-15.361-34.468-18.6c-10.619-2.767-21.606-3.66-32.552-3.25
		c-3.622-4.685-7.034-9.594-11.317-13.764c-11.315-11.225-25.538-19.156-40.258-24.987c-11.052-4.342-22.674-7.345-34.549-7.944
		c-6.233-0.397-12.495,0.05-18.688,0.787c-3.624-4.017-7.721-7.62-11.793-11.189c-11.531-10.282-25.342-18.384-40.569-21.328
		c-7.529-1.546-15.286-1.679-22.926-0.889c8.382-11.921,18.853-22.453,30.887-30.69c20.015-13.78,43.998-21.13,68.094-22.838
		C253.806,60.209,281.371,66.701,305.931,78.788L305.931,78.788z"/>
	<path fill="#2395D6" d="M263.028,166.669c1.195,0.805,2.793,1.953,2.47,3.611c-0.386,2.259-1.599,4.237-2.398,6.337
		c-12.462,28.68-25.002,57.267-37.462,85.945c-1.728,3.762-3.184,7.71-5.564,11.093c-4.161,6.224-10.507,11.089-17.763,12.978
		c-9.618,2.529-20.391,0.432-28.118-5.919c-10.769-8.52-14.988-24.457-9.282-37.045c1.382-3.188,5.377-4.925,8.548-3.419
		c3.075,1.127,4.366,4.745,3.415,7.709c-1.19,3.851-1.979,7.926-1.216,11.926c1.651,9.527,11.862,16.655,21.422,14.819
		c4.667-0.851,8.624-3.891,11.529-7.5c2.132-2.529,3.292-5.675,4.653-8.673c5.954-13.354,11.729-26.74,17.503-40.216
		c6.936-16.125,14.253-32.125,21.125-48.343c0.689-1.673,1.761-3.348,3.489-4.216C257.819,164.553,260.796,165.203,263.028,166.669
		L263.028,166.669z"/>
</g>
</svg>
